<?xml version="1.0" encoding="UTF-8" standalone="no"?>
<svg
   xmlns:dc="http://purl.org/dc/elements/1.1/"
   xmlns:cc="http://creativecommons.org/ns#"
   xmlns:rdf="http://www.w3.org/1999/02/22-rdf-syntax-ns#"
   xmlns:svg="http://www.w3.org/2000/svg"
   xmlns="http://www.w3.org/2000/svg"
   xmlns:xlink="http://www.w3.org/1999/xlink"
   xmlns:sodipodi="http://sodipodi.sourceforge.net/DTD/sodipodi-0.dtd"
   xmlns:inkscape="http://www.inkscape.org/namespaces/inkscape"
   xml:space="preserve"
   id="svg2"
   sodipodi:version="0.32"
   inkscape:version="0.48.4 r"
   width="1023.9256"
   height="511.9628"
   sodipodi:docname="Voyage_of_the_Beagle-en.svg"
   version="1.1"
   inkscape:output_extension="org.inkscape.output.svg.inkscape"><defs
     id="defs2032" /><sodipodi:namedview
     inkscape:window-height="680"
     inkscape:window-width="757"
     inkscape:pageshadow="2"
     inkscape:pageopacity="0.0"
     guidetolerance="10.0"
     gridtolerance="10.0"
     objecttolerance="10.0"
     borderopacity="1.0"
     bordercolor="#888888"
     pagecolor="#ffffff"
     id="base"
     inkscape:zoom="0.5"
     inkscape:cx="522.12005"
     inkscape:cy="261.46319"
     inkscape:window-x="0"
     inkscape:window-y="15"
     inkscape:current-layer="layer2"
     width="1024px"
     height="432px"
     borderlayer="true"
     inkscape:showpageshadow="false"
     showguides="true"
     inkscape:guide-bbox="true"
     showgrid="false"
     inkscape:window-maximized="0"
     fit-margin-top="0"
     fit-margin-left="0"
     fit-margin-right="0"
     fit-margin-bottom="0" /><metadata
     id="metadata2034"><rdf:RDF><cc:Work
         rdf:about=""><dc:format>image/svg+xml</dc:format><dc:type
           rdf:resource="http://purl.org/dc/dcmitype/StillImage" /><cc:license
           rdf:resource="http://web.resource.org/cc/PublicDomain" /><dc:title>World map</dc:title><dc:creator><cc:Agent><dc:title>STyx</dc:title></cc:Agent></dc:creator><dc:date>2007-07-27</dc:date><dc:subject><rdf:Bag><rdf:li>e</rdf:li></rdf:Bag></dc:subject></cc:Work><cc:License
         rdf:about="http://web.resource.org/cc/PublicDomain"><cc:permits
           rdf:resource="http://web.resource.org/cc/Reproduction" /><cc:permits
           rdf:resource="http://web.resource.org/cc/Distribution" /><cc:permits
           rdf:resource="http://web.resource.org/cc/DerivativeWorks" /></cc:License></rdf:RDF></metadata><g
     inkscape:groupmode="layer"
     id="layer1"
     inkscape:label="fond"
     style="display:inline"><g
       style="fill:#c8ebff;fill-opacity:1;fill-rule:nonzero;stroke:#000000;stroke-miterlimit:4"
       id="Background"
       transform="scale(1.279907,1.279907)"><rect
         rx=""
         ry=""
         y="0"
         x="0"
         height="400"
         style="fill:#c8ebff;fill-opacity:1;stroke:none"
         id="rect5538"
         width="800" /></g></g><g
     inkscape:groupmode="layer"
     id="layer2"
     inkscape:label="terre"
     style="display:inline"><path
       style="fill:#f0f0f0;fill-opacity:1;fill-rule:nonzero;stroke:#0978ab;stroke-width:1;stroke-miterlimit:1;stroke-opacity:1;stroke-dasharray:none"
       d="m 421.09375,18.34375 c -8.60991,-0.122873 -16.20048,1.007967 -23.14586,1.670612 C 393.4964,19.276448 380.36395,18.495841 387.25,22.25 c -3.036,3.976545 -19.15627,-3.640792 -17.71875,0.375 2.77866,1.832173 -8.24661,-0.500356 -9.53125,1.21875 -1.09177,-4.178482 -16.12806,-0.931804 -10.5625,0.625 -9.71453,-2.406518 -15.84835,2.101894 -26.9375,2.28125 -5.16438,2.999738 11.6438,0.189627 4.15625,4.125 -6.52192,0.417156 -14.96635,0.295405 -20.21875,2.90625 4.14,2.824909 17.45056,0.140408 16.75,2.46875 -4.84189,0.281449 -20.12377,-8.3e-5 -7.63552,1.430097 6.89471,-0.489662 -2.53741,2.003178 3.88879,2.025396 6.31112,0.614411 14.38951,-2.188742 22.43423,0.294507 5.25414,0.06371 14.09174,6.314297 14.65625,9.3125 -5.49758,3.35751 2.74092,4.792015 6.02394,2.722798 3.56227,0.09691 2.29619,1.607784 5.60106,4.245952 -3.05526,-1.773028 -15.08377,-1.996731 -5.84259,-0.05595 7.97191,-0.911179 9.50638,6.492219 1.15449,4.538654 -2.65835,0.573623 11.8402,3.124282 2.90685,2.986047 -7.61055,-1.140089 -5.0343,1.626309 -3.17664,2.95922 -4.92121,0.271461 2.13644,2.942983 2.66855,6.478287 7.78888,-2.332567 1.68036,-0.229123 1.32059,2.218743 4.16782,1.537279 3.64687,4.513852 8.4158,6.774243 3.766,2.367382 8.56643,-0.777199 10.80487,3.681419 1.0647,-1.810335 6.39282,1.544165 2.59183,-1.799412 1.4867,-0.590456 5.67063,-4.853253 0.75,-6.25 3.75048,0.579193 9.00595,-3.125687 5.31894,-4.568073 5.95453,0.499717 -2.29949,-3.604207 4.52481,-1.994427 -1.28244,-2.552259 5.79793,-1.83175 6.16609,-3.802723 0.0966,4.3753 12.79211,-1.771211 15.32098,-5.448729 4.05559,0.353267 14.75822,0.300484 21.27461,-3.200706 3.36836,0.322725 11.04401,-2.971382 3.14457,-2.079092 -3.89643,-0.03642 -19.79807,-0.71134 -8.64987,-2.856733 6.65503,-0.369437 -4.45691,-1.992535 2.89282,-1.510886 2.68427,1.409838 14.08844,6.983832 10.75705,0.430119 -4.12925,-2.051862 -12.4257,-2.909909 -15.84375,-5.125 6.38808,-2.514929 15.58363,1.940398 20.15625,-1.5 -9.95839,-1.647184 0.94809,-0.570528 4.04352,-1.919729 C 453.77107,43.163369 452.7567,41.782825 458.125,41.5 c -1.12275,-3.543653 -15.07851,-2.959548 -4.32243,-4.0316 4.42536,0.523998 12.23869,-0.767869 3.22509,-1.323153 -4.36898,-0.776783 6.21993,-1.493185 -2.7574,-1.87208 -7.50253,2.402409 2.42665,-3.696043 4.7744,-4.697156 9.91731,-1.481552 -10.97777,-0.02504 -0.73216,-2.232261 4.51619,0.747658 18.4857,-2.1063 17.02063,-3.538997 -9.9288,-1.189038 -20.02121,0.120495 -29.61438,3.007747 -4.8406,-0.632223 11.76772,-4.613377 0.77424,-3.504972 -8.83101,0.440703 -17.95234,-0.230492 -26.83674,0.254972 6.26547,-2.537884 14.33844,-1.151184 21.3125,-1.375 5.07193,0.311934 12.31481,-1.551976 3.1875,-1.96875 -7.58762,-1.406047 -15.26434,-1.598146 -23.0625,-1.875 z m -109.03125,1.1875 c -4.39282,1.415098 -10.77685,0.05654 -17.15625,0.3125 5.58981,3.294677 -10.44427,-1.799184 -13.21611,0.954584 -3.09928,0.993192 8.96091,2.74493 -0.0339,1.857916 -8.9634,-0.777719 -21.07865,-1.180814 -28,1.53125 6.06518,1.149205 5.29421,2.206269 13.21509,0.427005 4.31086,-0.623056 4.04236,0.628062 3.09741,2.072995 5.66239,-0.06884 19.67488,-1.761681 20.78125,-0.21875 -3.17637,-0.03151 -17.90028,1.177102 -7.65625,3.0625 -3.23134,0.137554 -17.01923,-4.15188 -14.48835,-0.39245 3.83585,0.907039 17.75363,4.076492 6.61786,2.819354 -4.67288,-1.907968 -14.98984,2.154719 -4.50451,1.760596 1.01995,2.391755 9.67861,1.604083 1.6679,2.500457 -1.98951,-0.807931 -14.22424,-3.187038 -7.4179,0.06204 -5.65677,-0.335474 -8.53257,3.112232 -1.89848,1.811925 8.11719,1.388812 12.05564,-1.416409 18.99223,0.656825 4.22893,1.580653 14.61258,-2.22739 4.09703,-2.015279 -6.18412,0.373355 -8.33385,-1.80992 -1.15953,-0.953471 5.61858,1.250879 5.12852,-3.191729 11.03125,-1.71875 -3.20504,-0.780325 8.97239,-2.927435 0.35853,-3.525272 -9.65958,-1.202954 12.00395,0.124371 5.92272,-2.037228 9.53667,1.826959 12.28321,-2.607405 21.50706,-3.656891 10.1782,-1.609265 -10.34886,-0.170052 -1.13053,-2.098399 2.8229,0.325436 20.53011,-0.479797 9.81097,-1.80721 -6.78396,-1.138323 -13.6515,-0.153762 -20.4375,-1.40625 z M 247.1875,24.5 c 0.46172,2.183778 -7.78877,-0.159924 -2.75,2.4375 -6.91288,-0.448925 1.93263,2.391712 -5.18135,1.442699 -1.80812,2.593872 15.45236,1.026671 14.21086,2.575937 -4.20769,-0.800271 -12.64055,-0.06995 -4.02951,2.043864 7.35576,0.796504 10.01025,-0.168548 15.93883,-2.056283 C 274.22301,29.32708 265.14571,32.277506 264,28.0625 258.88427,28.329037 253.47843,25.378383 247.1875,24.5 z m 322.15625,2.25 c -10.19456,3.758435 4.34213,1.517017 5.27058,2.982186 -5.42175,2.331635 10.20073,1.069213 12.83684,-0.159951 6.56251,-2.989232 -10.12341,-0.674219 -9.73242,-2.415985 -2.15176,1.389716 -6.01018,0.751026 -8.375,-0.40625 z M 559.5,28.5 c -2.34428,1.414953 0.97118,4.101012 -4.46875,0.71875 -2.94602,2.520703 -9.13398,-2.177157 -10.625,1.15625 0.96137,0.491381 6.88677,0.249288 1.75,1.375 3.08228,3.694686 14.21294,-1.374922 12.19766,1.621275 -3.84571,0.216985 -9.17712,1.905014 -1.76016,1.378725 9.99953,-0.163963 -9.08371,0.802783 0.6875,2.46875 5.86883,2.487116 9.39353,-5.9398 14.5295,-5.449333 C 566.50334,30.441846 563.61243,29.788876 559.5,28.5 z m -344.03125,1.625 c -8.62104,-0.190088 9.98673,2.816969 -0.1875,2.125 -1.52307,2.072351 10.77312,0.216555 13.90625,2.59375 5.4273,-3.003202 -11.87487,-4.025626 -13.71875,-4.71875 z M 233.25,31.90625 c -0.45795,4.367127 15.7098,1.341552 4.8125,0.375 -1.57395,-0.531919 -3.20446,-0.237948 -4.8125,-0.375 z M 198,34.1875 c -5.54995,-0.904957 -9.8779,2.089138 -1.52758,1.410928 2.40787,0.148318 6.4443,-1.881961 1.52758,-1.410928 z m 610.40625,1.25 c -8.33573,0.811725 -11.17493,5.739795 -20.6294,4.911592 -5.88724,-2.116502 -14.03933,1.334323 -21.1206,1.088408 -6.21268,0.665588 -6.50414,2.845661 -5.81812,5.222208 -4.91931,1.485132 0.42559,-2.208375 -6.52237,0.129023 -3.94538,-1.026734 -18.42422,-0.124192 -8.97201,3.648769 5.126,-0.714519 6.56463,8.318988 2.1875,4.40625 -4.53059,2.725077 4.46019,-4.723103 -2.11961,-2.321104 C 740.59935,50.295916 732.2736,50.307352 730.5,52.625 c 6.61088,-0.07229 6.37864,3.118507 0,1.21875 -6.26443,0.714895 -0.46872,-8.361469 -6.19764,-2.005496 -6.20898,0.16449 0.65044,3.681224 -1.49418,6.98556 4.59527,0.284513 12.0771,1.190388 11.51121,4.541934 4.18741,1.67685 -5.04688,1.152702 -3.31908,-2.455163 -8.13645,-2.863931 -5.07429,5.929178 -13.08134,6.966001 C 713.2933,68.91955 704.76304,65.035491 714.5,66.75 c 3.74633,-1.776403 8.86401,-4.49333 4.51688,-8.474551 1.9604,-4.249736 -4.63653,-5.241136 0.88937,-8.681699 -6.64682,-2.959593 -13.64947,1.620165 -17.19665,5.299841 4.31152,0.649346 -3.14335,4.243776 3.49286,3.676432 6.8386,6.84063 -9.60663,-0.780913 -14.83755,-0.506756 -4.54965,-0.939653 -7.1286,-0.227786 -6.12445,2.828427 -5.14109,1.113403 -10.2961,-1.462465 -17.24046,1.420806 -5.85517,1.593452 -0.11624,-4.266301 -6.11755,-0.511043 -7.48713,-2.654909 -14.53087,8.142415 -21.42852,2.670064 11.17868,-0.216719 -3.41306,-5.593731 -2.14143,-2.065271 -1.06228,3.536299 1.89912,7.324402 -5.49217,4.839444 -6.08652,0.637145 -5.51525,3.707639 -6.25783,5.316806 -3.77708,-0.276676 -14.49251,-2.512289 -5.79398,0.933954 -1.30188,2.822932 -11.73664,-0.388985 -9.63804,-3.687221 -0.24613,-2.872354 -11.68451,-5.304724 -2.15706,-3.328567 5.38577,1.271339 22.18154,4.732225 19.4842,-2.956176 -7.02029,-2.310949 -15.17131,-4.218538 -21.86387,-4.77449 -3.934,-1.466919 -17.3716,-0.958344 -6.40967,-2.820858 -3.72509,-3.202019 -8.64502,1.575206 -7.99235,-1.828556 -3.869,2.258942 -4.41668,0.341365 -8.14324,2.317702 3.67464,-4.632621 -7.48717,1.89356 -10.64224,0.675462 -3.45293,2.233652 -7.68264,0.987064 -12.56593,4.064421 -0.8045,2.078449 -6.9911,3.001663 -8.53229,5.012023 -3.10454,0.832366 -2.72928,4.074936 -6.37053,5.673556 -4.09879,1.597356 -8.26562,5.772504 -12.94973,5.276329 2.7876,1.681164 -6.08562,1.352548 -4.36277,3.223671 -3.58189,2.226462 0.49493,4.325969 0.0975,5.747799 1.67788,-0.593784 -3.57117,2.126507 1.0638,0.962208 1.80187,1.329431 -3.50337,1.487093 0.31187,3.13583 3.49257,3.317343 10.69379,-2.791151 12.77681,-2.720837 2.712,1.434307 2.46705,4.186725 4.62354,6.63241 0.78693,4.193022 3.68106,5.77092 7.91979,2.454622 3.95569,0.770769 5.42198,-5.261205 4.10412,-7.036411 5.62995,-1.676897 7.61802,-2.10789 0.009,-2.675628 6.19253,1.871983 9.28589,-2.276244 2.34332,-3.499993 -1.0917,-4.768009 2.12805,-6.087809 6.65625,-7.59375 6.76283,-1.468203 2.49836,-5.90735 8.9499,-7.028283 9.1981,-0.287676 7.98598,4.125365 -0.10615,6.528283 -4.69098,0.759681 -4.86733,3.939195 -3.51608,8.513983 4.25106,2.487572 8.48093,2.06233 13.60983,0.923517 3.15928,-1.56027 9.89601,-0.27757 9.81459,1.460913 -5.00699,0.332496 -8.38087,1.531466 -14.28334,1.132837 -8.02448,1.304883 1.27257,2.544898 -1.30027,6.556506 -3.9278,-1.512568 -11.65558,-1.966736 -8.66848,5.224744 -1.96858,2.00006 -3.96036,1.03612 -4.03227,2.45069 -2.45344,1.19262 -4.33672,-3.066812 -11.06148,0.61181 -4.9431,3.44413 -6.65195,-1.6978 -12.34375,0.28125 -1.69916,0.48319 -4.68186,-0.80501 -5.8125,-3.25 3.51085,-2.466853 4.54864,-5.121485 -0.53094,-4.309655 -3.54982,0.190581 -4.25229,2.871039 -1.90656,5.684655 0.99698,1.60827 0.62934,3.54316 -1.71875,3.40625 -1.60318,0.21721 -9.8983,0.0856 -6.43545,2.89817 -2.95902,1.4685 -2.10369,-3.19748 -5.68955,2.10183 -1.37512,1.5097 -8.95608,3.807 -9.97806,6.49738 -4.54278,0.93774 -6.48598,-2.32044 -5.64694,2.34637 -4.24968,-0.48663 -10.66254,-0.42159 -7.57662,2.18814 4.99884,-0.38556 5.6836,2.67292 9.18002,4.84272 1.01362,3.48064 -0.0874,3.08529 -2.32215,8.09414 -6.64814,0.0349 -15.74389,-3.15634 -20.75,1.15625 3.67977,2.57987 -0.36391,8.78222 -0.4375,12.03125 2.86761,-1.94776 -1.14429,6.70992 4.41912,4.63379 4.5962,-0.12424 6.32186,4.77417 11.53516,0.88665 5.27845,0.54241 12.3113,-4.02268 10.20275,-8.72772 3.71716,-4.59222 9.70083,-4.64543 11.18672,-10.32397 7.03516,4.57447 15.69702,-8.39322 19.95299,1.58968 4.91442,4.10413 10.15461,5.30343 13.54803,8.01784 4.41586,1.24191 -2.26155,8.80232 2.9468,4.48107 3.25582,-1.38121 -2.28646,-7.65169 4.02108,-4.66096 5.02539,1.09154 -7.04409,-4.07275 -5.5314,-5.08388 -4.27754,0.0722 -14.21589,-8.40266 -8.65893,-10.41619 3.98097,-1.81953 0.63845,4.36005 4.87319,1.12841 1.36626,4.32166 5.31566,4.67604 10.22741,7.58795 5.98617,0.93223 1.21666,5.88428 5.24583,8.38733 2.03648,2.94509 6.22863,2.7782 7.60357,4.49689 -5.80675,-3.2835 -4.16112,4.65224 -0.74031,3.53825 1.49899,-0.32355 0.48915,-2.63196 2.0077,-2.45754 -1.18364,-1.73114 5.40847,-0.30316 -0.62096,-3.0776 -1.30709,-1.8645 0.57894,-1.40155 -1.03125,-5.375 2.22757,1.62969 2.43336,1.7173 3.71875,0.65625 -2.22734,-0.79464 3.84813,-3.1938 6.75,-0.71875 -2.70859,1.75144 12.5383,-1.83112 4.87176,-3.18477 -3.08528,-3.5157 2.72215,-7.15927 4.62207,-10.23312 1.17556,-4.61567 7.14008,-4.06869 10.2219,-2.46628 2.4046,1.39783 -5.64638,2.09211 0.71211,3.04661 -0.0713,3.41732 13.91125,-1.88367 4.25966,-1.34994 -6.95172,-3.07001 6.22441,-2.66872 9.09375,-4.78125 6.83319,-0.01 -3.64481,1.49343 -0.0937,3.53125 -7.41216,3.61466 3.45992,4.77596 6.78125,8.15625 9.42877,5.93588 -7.65597,7.77782 -12.13474,5.3176 -5.73285,-5.29043 -13.36685,1.79933 -20.24212,0.21431 1.72028,2.4047 -0.0895,0.72769 -0.32499,2.17356 -2.58497,-0.83276 -11.52569,1.32173 -6.46924,2.93129 1.40294,2.19204 -2.02604,3.07494 0.082,3.90744 1.56909,3.49832 3.00809,3.56597 6.68289,4.7058 3.98065,1.40249 6.36951,-3.04644 11.375,1.15625 2.81194,-1.08513 9.58484,-3.92653 7.5625,0.28125 0.51313,4.36467 -2.4378,7.92515 -4.02306,12.40749 -4.73409,4.05096 -10.25022,-2.3245 -15.38319,2.06126 -5.01697,-1.82003 -10.26068,-1.53483 -14.52264,-3.44814 -4.21703,-3.10202 -12.23559,-2.79881 -11.52796,3.99972 -8.24803,2.75658 -13.5544,-7.82599 -22.16815,-6.55158 -5.35864,-1.70216 -5.88629,-3.51581 -3.03125,-7.75 -3.25406,-1.96018 2.42398,-4.55407 -2.28125,-3.71875 -4.96481,-1.28152 -10.41789,0.73187 -15.96875,0.34375 -6.35853,0.0638 -12.57901,1.52848 -17.72474,4.69834 -5.52083,1.95005 -12.49107,-5.63925 -14.36901,2.73916 -11.182,1.97715 -5.33428,15.09586 -15.625,17.625 -6.49378,3.91145 -9.72958,12.33289 -13.46875,19 1.53374,2.3001 3.75019,9.37562 1.4375,14.4375 -3.66828,4.06659 -0.39509,7.28388 0.37459,11.56496 4.06063,0.68818 3.54668,4.79604 7.59416,7.15379 1.55328,4.04357 3.77529,6.98353 8.0625,9.3125 6.26974,8.83488 14.95238,2.36618 22.875,3.65625 6.83349,2.10769 13.82727,-7.00397 21.09816,-3.06213 2.33977,6.03445 7.62637,4.86251 12.12059,4.81213 4.26461,1.72588 2.24381,8.26851 1.35147,11.16129 1.44108,2.04197 -3.44716,5.95465 1.42056,8.61049 4.26555,4.68193 9.48131,11.80722 9.67855,18.3816 4.59129,8.67487 -6.28438,15.99203 -4.18655,25.61588 5.52391,7.42789 8.17172,15.30316 9.42347,24.07449 0.84083,6.185 11.03446,12.65166 7.90625,18.59375 0.98208,5.43369 5.32065,5.91212 10.53125,4.46875 6.26678,-2.48971 12.52842,0.89494 18.06706,-4.2917 5.67975,-5.34153 13.99741,-11.32876 13.62044,-19.0833 2.02743,-3.69777 12.12626,-6.86016 6.54069,-13.57069 -3.33362,-8.64695 10.49319,-10.61212 15.11556,-16.46056 2.36108,-4.39273 -0.82327,-10.1857 0.13405,-15.19001 -4.34547,-4.1482 -3.27701,-10.90008 -3.19655,-15.93499 3.05397,-6.82946 7.55524,-9.88444 12.55058,-15.88456 7.73297,-4.63206 14.44785,-11.66711 17.30338,-20.25206 3.93014,-4.08143 6.79021,-15.76016 -2.57271,-9.48838 -5.71248,1.30253 -16.03936,3.50423 -17.03157,-1.64956 3.25796,-3.02661 -6.35636,-8.13015 -8.68718,-10.10044 -1.67603,-0.94389 -3.66649,-9.1937 -7.25933,-11.26202 0.20409,-7.61145 -5.31614,-11.41078 -7.71119,-17.32026 -2.51537,-3.64338 -9.70579,-18.445 -2.93994,-8.12801 3.98476,4.00485 4.06762,-8.47696 4.31671,0.58529 4.53569,7.42105 10.96908,12.40808 12.65625,21.03125 6.52956,4.95212 10.07767,12.53573 10.90625,20.53125 3.02795,4.52313 12.2671,-1.43315 16.90625,-3.21875 6.11652,-2.18868 12.42343,-5.8071 16.96291,-8.50031 4.11847,-1.799 7.00435,-4.88614 8.47459,-7.93719 7.60238,-4.47057 1.46475,-9.06726 -4.44647,-11.40717 -0.38399,-8.17006 -3.48999,-1.61392 -7.5428,0.71297 -5.72794,1.51219 -8.23685,0.29323 -7.60448,-5.3683 -2.29881,3.32924 -0.5042,6.16701 -3.76869,0.80411 0.93021,-4.55383 -5.02806,-5.00647 -5.57506,-10.02286 -2.31749,-1.48536 5.5582,-5.28991 7.38861,-0.40547 2.42531,7.60516 11.23772,8.84608 17.29889,6.93672 1.99049,6.35302 11.1148,4.84728 16.7545,5.17566 6.60183,-0.99552 11.69408,-1.255 15.4955,4.19934 2.5792,2.95291 10.68173,2.84729 2.28125,3.96875 2.86287,6.63937 9.50491,3.98607 10.76759,0.68839 0.84431,7.17391 0.57641,16.12368 5.52699,23.07428 2.56598,4.13418 5.10142,21.03814 10.51142,14.08689 4.20571,-2.19163 5.08437,-8.4181 5.16275,-13.78706 -1.00403,-8.60267 10.04054,-8.40487 14.00038,-15.76805 5.02591,-1.32514 6.01142,-7.81017 10.22674,-7.03134 1.53667,0.49981 4.42888,0.4857 5.65156,-1.43964 1.04417,-5.27908 4.38793,6.32664 7.55882,6.58278 2.09217,2.9565 3.763,6.76155 2.9375,11.5 2.46689,1.7011 5.90321,-2.1346 7.84375,-3.15625 2.44038,6.27007 5.46992,14.07792 4.21875,20 -3.22528,4.80115 2.21922,7.27284 4.35859,9.97048 0.62936,5.77991 3.05744,12.3003 9.36016,14.68577 3.92345,0.28562 -1.85369,-7.42533 -0.88657,-10.80076 -3.98067,-4.02395 -8.47226,-6.37506 -9.67618,-11.52221 -3.60597,-0.22191 0.82646,-14.52696 3.56078,-11.13737 1.83661,2.06202 7.20257,4.87718 7.69967,7.61896 6.58047,-1.04459 0.71123,9.41055 6.83587,3.44534 1.78274,-4.90696 9.06235,-3.23411 9.27893,-10.35396 1.92396,-9.74453 -16.47186,-13.93898 -7.34226,-21.91417 1.58091,-1.78756 8.01995,-5.02164 8.23546,-1.28439 1.25765,5.20635 2.95892,-3.94334 8.57555,-1.92644 2.2002,-2.7945 3.85389,-1.99314 7.45073,-2.89311 4.81269,-0.34118 7.64631,-4.61481 10.82729,-7.48535 0.64537,-4.266 7.60433,-7.25174 6.59698,-11.34029 3.41483,-3.63054 -9.42878,-0.87904 -0.15625,-3.71875 2.20222,-2.72627 -1.9679,-4.8724 -3.125,-8.46875 -6.55504,-3.69266 0.10679,-7.38933 3.59652,-8.92428 6.79051,-1.52116 -5.89144,-2.78046 -7.57186,-1.29817 1.03993,-2.60489 -7.66519,-4.70096 -1.57003,-5.0833 2.11857,-1.93656 14.26277,-8.41966 8.52391,-1.55689 -1.38556,5.18068 6.15654,-2.74647 10.67771,0.0501 0.60009,3.04301 -1.67351,6.56391 3.53125,5.3125 2.08091,3.34249 -1.01066,2.01766 0.34375,6.4375 -1.96174,5.47485 7.62245,1.44201 8.64379,-1.1805 1.05132,-5.79511 -11.70105,-10.66186 -0.8877,-13.46314 2.58988,-4.39535 6.72045,-9.432 11.63463,-6.10232 7.58708,-2.47242 12.56313,-9.62727 17.92737,-15.11527 2.70619,-5.89402 8.83444,-16.32974 -1.69309,-17.17002 -5.68203,3.73277 -6.04571,-0.62771 -11.44585,-1.76547 8.31394,-3.650008 15.1721,-11.073214 24.05499,-12.988113 5.84507,0.09281 9.44245,0.747711 15.29745,-0.07108 2.71367,-1.622518 10.9015,0.09841 7.18866,1.693591 2.65624,-1.02828 14.12644,0.02528 7.65475,-2.462677 3.27125,-3.898353 16.46796,-9.199503 16.57721,-4.535235 1.52349,3.908567 8.30925,-1.991646 10.84916,-3.67024 6.80245,0.401891 2.88946,-0.802746 0.88613,2.205475 -0.29609,4.044591 -10.09196,4.442669 -7.64542,5.46458 -6.71858,5.074991 -19.54934,6.317369 -15.42454,17.555839 0.70046,9.28313 5.42587,7.10502 9.06996,1.60458 3.24328,-1.27559 3.85316,-4.6219 8.46875,-5.09375 -3.49198,-5.788088 6.98163,-1.664679 1.59375,-6.312499 4.49731,-2.427888 -6.84026,-1.969796 0.85624,-5.181301 0.92284,-4.436528 5.28701,-1.658257 8.42991,-4.160948 1.09984,2.688978 8.61921,-2.513164 12.53022,1.013933 5.12628,-3.93588 12.36028,-4.90337 18.49608,-7.327934 3.1663,0.675812 10.9292,0.156001 4.0524,-2.622231 1.9474,-3.402388 -6.0973,-1.650514 -5.9972,-4.052861 7.6993,2.911622 13.3652,-1.164872 10.7887,-10.012408 -4.8909,-5.974482 -16.5426,-2.635613 -23.9992,-4.446856 -7.44131,-1.049825 2.7429,4.503256 -5.43575,3.54056 -6.14532,-3.705468 -13.38271,-1.712627 -20.26354,-2.345109 -7.69245,3.600348 -9.31139,-6.786589 -18.72713,-4.075788 -7.14859,1.989201 -13.15378,-0.586483 -20.01198,-1.860307 7.29837,-1.759544 -7.79739,-2.434901 -9.42935,-9.9e-4 -4.49261,0.466085 5.23331,-2.194044 -1.63315,-1.43651 4.14179,-1.167189 -9.23541,-2.455727 -12.01473,-1.043734 -5.06853,1.077471 -3.83198,-0.36091 -2.31051,2.171588 -4.80682,2.029525 -13.03028,1.100348 -19.79847,0.436316 -5.3268,4.845186 -12.10269,-1.088108 -18.873,-1.92391 4.5713,-1.189462 9.81352,-3.26017 1.38032,-3.210023 -8.54616,-2.181527 -14.52751,4.366491 -23.57839,0.599004 -5.40023,-2.886385 -14.00813,0.468079 -20.36772,-1.654241 -2.88983,-0.362341 -14.56631,3.579631 -15.67186,2.21875 5.95863,-2.759299 19.25088,-3.884138 21.20297,-7.200688 1.51997,-4.100293 -13.35047,-3.384204 -18.09361,-2.611812 -1.4488,-0.489886 3.67873,-2.209332 -2.59375,-1.46875 -6.95625,0.309135 -0.27045,-0.409634 -2.25,-1.71875 l -1.6066,-0.03528 -1.61215,-0.02722 z M 181.125,35.46875 c -3.85349,0.471612 -18.35089,1.275772 -15.90339,4.029439 6.28287,0.248072 10.3072,-2.04824 16.03452,-1.769244 -0.67436,-1.547212 5.06616,-1.791825 -0.13113,-2.260195 z m 57.125,1.5 c -1.38056,3.009421 14.11858,1.185932 3.48445,0.181018 -1.14684,-0.298728 -2.32307,-0.07037 -3.48445,-0.181018 z m 468.125,0.375 c -8.81731,1.529207 -17.73979,1.876157 -26.51499,3.324448 -7.47656,1.864614 -7.97308,4.358863 -12.61001,6.113052 9.60612,2.202134 8.96629,-3.008831 16.19583,-3.12656 5.50383,-3.893696 17.20382,-2.069827 24.92917,-5.21719 1.27601,-0.787681 -1.65383,-1.473644 -2,-1.09375 z m -504,0.125 c -8.37866,0.06778 5.13007,4.070667 -3.60478,3.437818 -4.86501,0.306836 -13.33882,-4.541457 -16.42647,-0.781568 8.37073,0.638118 -10.11023,1.023097 -0.125,2 3.46536,0.01524 21.18534,-0.937539 9.19849,0.689429 -8.42335,2.656684 11.31169,-0.300271 14.65134,-0.117627 5.4208,2.286623 8.43333,-4.654185 2.96267,-2.353052 -3.18249,1.180592 -4.15983,-2.001433 -6.65625,-2.875 z m 25.0625,0.5625 c -1.80749,0.666912 4.1412,3.140063 -2.45853,0.659449 -3.40734,-0.275399 -5.54655,4.1444 1.30228,1.871801 3.09645,0.331244 -0.0994,3.133892 6.08825,1.889722 5.80769,-3.302712 0.14224,-4.833103 -4.932,-4.420972 z m 23.71875,0.125 c -5.68193,-0.884088 -0.0525,3.601933 1.03125,5.28125 5.36073,-0.745555 10.25888,0.840912 15.3125,-0.125 5.69152,-0.94801 12.44127,1.819582 16.125,-0.40625 7.21667,-2.340628 -8.82436,-3.230844 -11.48884,-2.375237 -6.32361,1.233219 -13.39891,0.982862 -18.38616,-0.937263 6.57965,-0.719738 1.01939,-1.447987 -2.59375,-1.4375 z m -84,5.84375 c -4.89553,0.930941 -11.27447,-1.275556 -7.94521,3.181891 -4.66304,2.645814 -4.9643,4.583644 1.36681,5.375735 7.76377,3.607659 12.12623,-5.806245 20.7659,-5.338876 4.98657,-2.424722 -9.22231,-1.58912 -12.1875,-2.9375 l -2,-0.28125 z m 78.21875,1.15625 c -7.27538,-1.836828 -2.68182,9.340839 0.17836,4.205712 -0.79133,1.050381 16.61661,-4.075506 5.35474,-3.759848 -1.8676,0.183699 -3.66878,-0.493485 -5.5331,-0.445864 z m -16.6875,0.6875 c -7.09215,-0.835514 4.45384,3.987106 -4.54641,3.00107 -9.67452,-2.154934 11.68109,7.114653 8.6025,2.796146 6.64798,2.371357 6.91846,-4.762702 0.16266,-3.672216 9.2678,-3.051356 -1.18994,-1.096616 -4.21875,-2.125 z m 38.96875,0.125 c -7.14152,-1.500952 -15.41917,7.753439 -6.2432,7.033145 9.38938,1.777776 -9.27801,0.802658 1.37995,2.912985 6.02122,0.197863 12.84464,1.084346 19.582,1.77262 -1.66101,-2.169209 12.61226,0.762879 2.375,-2.3125 -1.68349,-1.983526 12.56454,2.911679 12.25322,4.261141 -5.34762,1.154353 9.69487,-0.659624 10.02803,5.020109 -3.43622,2.575183 -6.18715,3.320686 -4.03125,5.375 -4.46765,2.32715 -9.7044,-2.057011 -12.4375,2.59375 8.51009,1.519132 12.14968,-2.364686 19.46875,2.65625 -1.29221,2.537863 14.52628,5.452998 14.36604,3.946281 -3.58377,-2.646835 -10.0786,-4.210136 -4.42854,-4.508781 5.50911,3.078199 10.01047,4.673757 7.76454,-0.03642 4.12334,2.901654 -1.88034,-3.464524 -3.42614,-3.138236 -2.21974,-0.169673 -9.38486,-5.340112 -2.79107,-3.218341 -2.5659,-3.993248 7.90082,1.345642 9.32931,2.524714 1.93194,-0.386918 2.25128,-2.324506 5.09211,-2.75672 -3.96961,-1.456845 7.26479,-0.322889 0.0937,-2.59375 -1.61895,-0.261559 -9.40139,0.237365 -5.5625,-1.5 -2.82923,-1.471303 -13.7552,-1.788854 -11.96088,-3.812521 -2.59892,-2.167624 9.2592,-0.23087 0.78612,-1.848565 -0.35711,-0.644344 4.95204,-1.575368 -0.51274,-2.057664 -3.75495,1.476708 -5.57952,0.318188 -0.8125,-0.875 -4.42458,-0.943433 -10.10002,-0.529503 -9.21753,-2.703354 -2.18603,0.25718 -13.27541,1.010557 -7.40747,-1.515396 -6.34528,-4.809561 -11.46262,1.390014 -15.87563,-0.882172 -5.78227,3.496713 0.84365,-5.137742 -6.43814,-4.044072 -2.06737,0.05951 -11.19035,0.860224 -4.93623,1.988744 -4.21834,-1.027277 -6.22984,1.879338 -1.125,2.3125 -8.08344,-1.099917 4.29849,4.544435 -4.53125,3.0625 4.06492,-0.797675 -7.15468,-4.639227 -0.21815,-6.4076 4.72666,-0.980986 0.46149,-1.308043 -0.5631,-1.24865 z M 205.25,47.375 c 1.52106,3.02197 1.09123,6.902657 -2.375,2 -4.69307,-2.188548 -5.28259,2.794648 -10.36774,-0.688727 -4.01764,0.816662 -5.51021,1.011425 -5.9315,-1.20227 -4.36668,-0.07375 -18.6437,4.325183 -7.06306,5.262344 9.26053,-0.477499 -0.5489,1.117932 -3.85645,1.503653 5.92737,1.698305 14.50832,-0.718118 19.375,1.96875 -3.1253,0.670031 -17.78851,-1.273417 -14.92478,1.646406 8.9661,2.009608 15.86318,4.534294 25.76974,1.846372 4.27809,-3.264781 15.50118,3.739053 16.34254,-1.117778 -10.67423,-0.415839 9.98289,-0.349539 0.50889,-2.561745 C 213.10742,57.142897 215.54733,45.944214 205.25,47.375 z m 465.65625,0.25 c -6.99563,-0.407969 -6.27939,1.759315 -10.125,3.53125 -5.90784,2.353851 10.84253,0.746462 4.75,3.65625 3.2572,0.578633 15.3577,1.200519 5.8125,-2.34375 -3.8583,-3.373173 6.03594,-4.505896 -0.4375,-4.84375 z m -225.5,1.78125 c 1.8703,3.011526 9.41447,0.834481 1.09375,0 l -1.09375,0 z M 242.8125,51.625 c -2.57508,1.038595 -2.16952,1.507113 -4.74593,3.151262 0.1351,2.675305 5.93634,3.26075 10.22478,4.115646 -0.80411,1.274133 -7.57972,0.588372 -1.41635,1.639342 -1.69512,1.604403 -7.12848,2.040712 -5.97016,4.652749 -2.3385,-1.253175 -3.99173,-5.750362 -8.09234,-2.965249 9.72216,1.917074 -8.06583,0.693474 -11.13065,1.174471 -5.36672,-2.081747 -16.79527,-2.399336 -15.05685,2.544279 -2.10582,-3.135346 -14.06629,-2.471752 -21.375,-2.8125 -3.07001,-1.316627 7.50475,-1.581504 -0.65203,-2.987282 -8.61434,1.18288 -17.2944,-4.809449 -25.41047,-1.481468 -2.66562,-2.661471 -5.52015,2.483033 -9.81459,-3.237301 -3.58454,-1.266186 2.44861,2.303119 -3.62291,2.362301 -5.52026,1.213209 -18.99877,4.771564 -7.61474,0.321468 11.83024,-3.290977 -5.88194,0.449984 -9.90234,0.296987 -4.17773,0.673412 0.95727,3.421067 -5.88147,1.553358 -8.02052,-1.481437 -15.87226,-3.558158 -24.029821,-3.543055 -9.329639,-0.312415 -18.739089,-1.787889 -27.606904,-1.95483 -3.772019,-1.981039 -12.72244,0.105719 -14.683475,1.263572 -6.205165,1.419362 -11.974885,4.218195 -17.875,5.8125 6.448454,2.182522 14.397066,3.96493 18.9375,5.875 -8.467734,1.310315 -14.196239,-1.904138 -22.75,1.84375 4.812322,1.386282 7.907011,-0.166582 4.5625,2.75 5.729261,3.117833 17.176795,-3.79667 16.124728,2.536376 -3.783863,2.316844 -15.405448,1.372349 -13.999728,7.307374 4.238703,0.552569 9.606283,1.725586 2.234289,1.912012 2.382827,4.326815 9.578418,-1.029234 9.189517,5.392663 5.355549,0.07597 10.545545,-1.185982 12.763694,0.757825 0.510403,4.470913 -15.521417,7.583575 -4.934462,6.876284 5.695184,-3.316508 10.463675,-4.602775 15.692282,-8.325336 -4.063526,-0.923265 7.095659,-7.692675 10.46093,-6.269698 3.294362,0.77238 -7.523688,1.220541 -5.090347,4.929 -0.820883,0.210786 12.821018,-1.06179 8.327595,-3.694909 5.673728,-3.140829 12.575542,3.854728 19.356502,1.859659 3.37778,0.834345 7.95894,0.105584 7.94876,2.241056 3.70849,1.583577 8.24044,2.697115 7.30613,1.136201 5.28703,3.72042 1.6761,-4.192912 5.99511,1.310243 3.25062,1.299318 5.24405,6.857819 7.65625,6.8125 2.60716,0.924092 4.67494,3.037079 4.87993,3.44208 0.081,3.44896 4.94763,4.321 7.33882,6.68292 0.66543,0.29237 -2.89127,4.84673 3.27549,4.13334 4.2703,3.0166 8.30264,2.66504 11.01971,7.21942 -0.16751,7.79562 -2.96218,-3.48187 -6.28636,1.37274 3.29989,3.83957 1.86133,8.51286 0.11616,13.8995 0.81413,5.95154 1.72301,13.34745 6.82308,15.43998 -2.04851,-0.71277 2.32626,5.52936 4.18669,7.00901 3.04154,3.3121 9.59752,3.65708 11.65031,9.48297 0.57046,5.57494 9.95148,10.52092 5.6762,12.64481 7.43831,1.14084 8.56985,12.49513 14.63247,11.86073 -3.52605,-2.4143 -5.02033,-8.0371 -7.85745,-11.99542 -2.41768,-3.45697 -8.74478,-7.19066 -7.15156,-12.27288 6.23824,-0.29241 5.52826,8.15982 10.86714,10.82657 3.50286,2.37096 4.30197,6.01543 7.67312,7.97298 2.91149,3.91271 9.90264,7.8537 8.17224,13.15693 1.66344,6.33299 12.66726,8.70842 19.35047,11.65682 6.19489,3.96353 13.56183,-2.53343 18.28979,5.405 5.63051,4.4017 13.26296,1.30833 15.1875,6.75 4.05128,3.76193 3.46237,8.12797 6.15625,6.4375 3.97382,2.91039 2.69305,4.55767 6.34375,4.53125 4.34855,2.00144 6.2677,4.21492 7.125,-0.5 3.77156,-2.90647 5.80921,0.60308 5.71875,3.75 2.325,3.79505 3.00973,9.37317 -0.25,13.375 -2.29553,1.95267 -6.29999,4.45956 -6.8125,8.75 -3.57551,3.2896 0.2049,6.06137 1.8125,6 -5.86927,5.28602 -5.08961,9.57341 0.5625,13.6875 6.10268,7.80556 7.10753,18.71476 15.5625,24.15625 7.76393,2.44497 13.5931,8.01979 11.16853,16.83302 -1.53095,6.1915 -0.37929,13.04003 -3.3959,19.53058 -1.26631,5.89923 0.65964,12.07378 -2.41627,17.69986 -4.74152,4.99013 -2.83791,8.93253 -4.01486,14.37856 -3.63557,5.83343 5.66712,2.94609 2.50225,7.49548 -1.02308,3.13585 0.63999,6.57825 -2.01801,8.20144 -2.83693,6.63548 -0.84549,-2.27416 -5.70811,2.62585 3.63834,0.37885 4.03593,2.24869 3.58414,3.62367 3.98459,-0.64741 -2.18951,3.32028 0.11785,5.08439 1.03519,3.17974 0.0585,3.40828 1.65292,6.22191 1.90591,1.11607 7.16716,2.22705 2.30871,3.86774 4.47938,-1.41725 4.18905,-0.43342 3.3125,1.9375 2.33851,-1.30079 4.6995,-5.37759 9.03125,-4.03125 -7.59298,-6.62412 9.89571,-10.14938 6.38295,-14.90773 -8.68687,-3.02758 1.47269,-6.01034 2.61554,-8.42688 -0.83509,-3.05221 3.99725,-3.07662 0.84752,-4.19202 6.58589,-0.20404 1.91424,-1.079 -0.12514,-2.28804 -2.35787,-6.00059 12.03991,0.60853 7.46332,-7.74535 5.60882,0.11142 19.44975,-2.13004 14.62831,-10.56498 -8.80378,-5.91296 3.55868,-0.50711 7.37841,-1.60175 6.1376,-2.21206 6.30572,-11.51694 11.34034,-13.08575 -5.11439,9.23228 3.93019,-3.7866 5.83598,-7.01144 -2.78641,-7.28825 4.40571,-10.0643 9.80064,-12.34093 6.49854,-2.13089 12.68443,-1.87255 14.61338,-10.36638 3.83962,-5.54166 1.46565,-15.33407 4.11324,-20.19052 2.73369,-4.24698 13.62347,-10.7382 9.54301,-19.09073 -3.06509,-3.62566 -9.9222,-6.06407 -14.6875,-9.09375 -3.88834,-0.62731 -11.04023,0.1648 -12.20997,-0.66431 0.0888,-3.67858 -10.01271,-8.51852 -12.50878,-1.83569 -1.3427,1.45282 -6.8572,-2.78572 -8.25,-1.875 2.13124,-4.45366 8.83647,-7.27692 3.1875,-11.40625 -0.76159,-8.57847 -12.68337,-9.12311 -18.02236,-9.76399 -4.53765,-1.59832 -6.73003,-8.39427 -12.43843,-7.23364 6.67743,-3.37372 -8.42127,-3.72398 -1.78921,-5.72112 -7.79365,0.6443 -16.6259,2.5054 -21.9375,-3.9375 -0.90651,0.26524 0.55017,2.66742 -4.53125,3.28125 3.96363,5.71461 -3.84957,6.04855 -0.5625,0.40625 -2.32532,-2.65555 4.63877,-5.58624 -1.28125,-3.78125 -6.72301,2.46938 -8.86083,4.74141 -13.21875,9.78125 -0.0236,4.44427 -7.25266,-7.48095 -11.5,-0.8125 -7.62355,0.79562 -11.04734,-10.12345 -7.09148,-16.26259 -1.79603,-5.64639 -11.55381,-3.21239 -15.1845,-2.99719 -0.7146,-1.6479 2.01735,-6.7531 1.52275,-8.88665 1.67503,1.91962 0.65415,-5.46029 3.44073,-6.88482 -6.74276,-3.62601 -10.65799,2.16936 -13.39565,6.72486 -1.30674,1.37533 -8.6879,2.40113 -12.3231,0.0564 -7.23302,-6.98718 -5.32064,-17.2307 -3.81426,-25.145 0.36464,-1.83862 6.34323,-5.1958 8.15801,-5.19875 4.40297,-3.05372 10.09224,2.44292 11.92696,0.19193 7.8441,2.99428 -3.67964,-3.80836 1.77469,-2.06392 4.13933,-0.38003 8.36089,-2.03916 12.0098,1.29295 4.97775,-3.12894 8.06523,3.46662 8.33822,5.65875 -0.60733,2.15793 4.17842,9.14129 6.05221,6.78176 2.65034,-7.63475 -9.33576,-18.04878 2.77312,-22.01772 3.88487,-3.02048 8.566,-5.22906 7.78812,-6.04566 -2.01114,-1.04684 5.77865,-1.40784 -0.35062,-2.67309 2.81827,1.19681 1.83817,-3.55118 3.4375,0.90625 -2.54063,-5.35332 -4.31896,-2.98044 -2.125,-4.71875 -3.03378,-1.79778 2.6799,-0.15196 -2.93446,-2.70096 2.31847,0.51532 2.27125,0.8993 2.99696,-2.95529 1.75804,-0.11528 -1.4539,3.19762 1.09342,3.41334 -1.40253,4.8461 3.36943,0.98716 1.37533,-2.35084 -2.49816,-3.411 5.80872,2.36615 3.25071,-4.11742 1.66468,-1.96965 8.42219,-3.31685 11.40554,-3.10133 1.98966,-1.34905 -4.09089,-0.89001 -0.86713,-4.78206 2.61797,-2.03234 4.03852,-2.69615 6.83588,-3.43669 3.05175,-0.56992 3.9326,-2.21826 7.90625,-2.5625 5.87365,-3.2871 -1.85089,1.61771 5.48656,0.24824 -3.52553,0.86918 -8.45073,0.96743 -7.58031,4.09551 2.62911,2.93095 4.59703,-2.25499 6.28625,-1.964 2.46915,-0.35081 11.58517,-1.86249 5.65212,-3.36182 -4.78838,0.90497 -6.93611,-1.51088 -9.82561,-3.79044 5.41232,-3.01316 -8.50399,-2.18924 0.79425,-3.02741 6.61744,-4.69899 -10.92401,-2.4257 -13.31326,1.23742 -8.8348,5.93444 7.50557,-7.98245 11.70484,-7.36643 10.02151,1.43669 19.02311,-1.12212 27.86019,-4.72522 0.91876,-4.53935 -5.12832,-6.89509 -9.36296,-4.36595 -10.18341,1.02818 13.24927,-3.56478 -0.0458,-4.13615 -4.73548,0.67337 -4.70042,-3.046544 -9.0625,-5 5.84368,0.09198 -1.73811,-3.631591 -2.46576,-6.222203 C 329.31815,83.130613 326.19394,86.013744 325,89.75 c -3.21792,-0.06919 -6.71959,0.51219 -10.53125,-0.25 0.16628,-1.551183 2.78769,-8.752264 -3.33889,-7.014824 -5.13848,-3.689799 -15.37219,-5.601385 -20.20212,-2.306563 1.91752,2.093623 -1.11034,2.89628 1.35073,4.25888 2.0838,3.185428 -7.22008,5.307742 1.34653,7.093757 6.84571,6.88891 -10.99047,7.794175 -5.625,11.6875 2.30392,4.36898 0.76671,7.04796 -1.47954,7.3872 -3.64392,0.71785 -9.12781,-6.85695 -8.92759,-11.237894 -10.09237,1.218244 -17.92901,-7.715022 -27.93662,-5.336806 0.46879,-6.174293 -11.4988,-4.530241 -4.53855,-11.872195 5.19356,-3.063097 3.97761,-5.054766 9.8198,-5.784055 -4.27142,-1.272072 -10.78907,-2.780115 -2.84375,-1.75 4.94491,0.434554 6.82809,-0.04449 12.1239,-2.532759 1.19408,-1.849694 -15.88494,-3.793718 -6.15095,-3.506603 2.15132,2.894683 13.18439,0.583265 7.83955,-1.741888 2.82398,-0.662382 12.42361,2.377099 5.17492,-1.131113 2.93148,2.504273 15.23751,0.378109 7.07508,-3.868887 -1.04491,-1.837886 6.55734,-1.214441 0.375,-2.96875 -3.83993,-2.159264 -11.8023,-1.737186 -6.81864,1.708942 -3.09766,0.809249 -8.62701,8.135901 -10.36886,1.197308 4.50962,-1.21033 -4.7275,-4.198887 -5.59375,0.03125 0.64469,-5.095436 -6.06987,-2.478037 -5.44915,-5.139839 3.84574,0.423365 -5.71054,-6.142123 -7.48835,-5.047661 z m 114.90625,4.65625 c -1.76563,5.289644 14.16449,1.223685 2.79816,0.33478 L 359.28125,56.5 357.71875,56.28125 z M 234.03125,57.5 c -9.55652,2.950417 5.80517,4.83346 6.125,2.46875 -1.71865,-1.305435 -3.88351,-2.32436 -6.125,-2.46875 z m -234.1875,2.5625 c 0.53986404,4.945271 -1.9696116,15.810028 3.6875,8.1875 5.3886661,1.058939 10.616611,4.102023 17.007089,4.527107 -1.456537,-2.036774 4.44771,-1.811097 -0.0071,-3.839607 4.725714,1.141855 4.917405,0.0097 8.5625,-1.03125 C 24.296956,64.933504 16.977605,64.793608 15.797776,67.031783 13.467523,61.358993 5.3746526,61.931299 -0.15625,60.0625 z m 297.25,1.6875 c -13.42129,2.047615 8.37393,5.216746 0,0 z m 169.34375,5.34375 c -3.72786,2.350703 -7.32664,1.293489 -11.11496,1.340039 -1.53453,5.671806 -6.61726,-4.588501 -7.29449,0.170727 -3.34647,-1.275707 -5.78885,2.976681 0.49654,1.307973 7.55357,1.206607 -9.51844,2.71692 0.49961,2.317486 5.71113,0.964399 -4.68231,3.153413 3.38479,2.620579 6.63148,1.373853 18.77922,0.922963 21.55976,-4.944304 -3.17141,-0.09642 -4.03672,-2.59661 -7.53125,-2.8125 z M 269.46875,68.8125 c -0.77728,4.868843 -7.69533,7.272577 0.15625,6.3125 2.68573,3.432996 7.19867,-4.803966 11.24869,0.118234 7.42014,0.78472 -2.68785,-2.467254 -5.18586,-3.976073 -2.84489,-1.757169 -4.41607,0.01257 -6.21908,-2.454661 z m -245.5625,6 c 0.529079,2.016698 13.345953,1.663087 3.21875,0.125 L 25.511102,74.999362 23.90625,74.8125 z M 498.6875,89.59375 c -1.14959,2.536086 -1.61894,2.243706 -3.09294,5.725785 3.4675,-0.836134 -0.32232,3.231543 3.87826,1.607973 -2.93058,3.760552 1.93251,3.238632 3.65218,3.603742 1.86673,2.76629 1.06941,4.13783 -3.34375,5.3125 4.34367,1.11701 -6.54072,3.80294 1.5625,3.4375 9.26156,0.12043 -6.44616,1.79535 -3.77524,4.61804 4.44839,-1.47639 7.85622,-1.96018 12.53647,-2.17109 6.12487,0.46163 5.59755,-1.97017 4.80127,-2.4782 6.12929,-4.08371 -4.06091,-2.01945 -3.15625,-6.9375 -1.15849,-3.239076 -10.4658,-6.173402 -8.51014,-5.481545 2.26355,-0.293026 6.47607,-6.802568 -1.46063,-4.386899 -2.92814,-0.958122 6.75401,-3.812969 -1.43548,-2.506556 l -0.85883,-0.108496 -0.79742,-0.235254 z m -373.3125,0.9375 c -2.70662,3.189102 7.60374,1.054007 0,0 z m -48.21875,1.125 c -8.823746,1.662027 1.670224,3.229125 1.102913,0.120648 L 77.15625,91.65625 z m 465.46875,0.1875 c -4.95473,1.769575 -9.16367,3.41842 -1.4375,2.125 1.41793,0.131618 1.09506,-1.335096 1.4375,-2.125 z M 127.9375,92.75 c -1.80703,2.590905 4.2793,3.997202 0,0 z m 5.3125,3.34375 c 1.66243,6.08412 6.65774,3.543636 0,0 z m 414.34375,0.71875 c -2.71318,0.498033 -4.35237,3.021765 0.25,2.25 -1.25348,-0.696855 1.59851,-1.635598 -0.25,-2.25 z M 53.625,97.1875 c -11.733553,3.76498 9.344473,0.38052 0,0 z m 443.1875,0.625 c -1.4994,1.051433 1.11076,0.844197 0,0 z m -447.96875,1.125 c -1.597543,1.28919 2.774169,0.885096 0,0 z M 490.28125,99 c -3.48406,1.92826 0.17195,3.06735 -6.28125,3 -1.40374,2.95185 4.79683,1.80939 1.73573,4.36771 -0.1209,0.56916 -5.04712,2.34401 0.39693,3.34813 6.24605,-0.29271 9.38844,-3.59901 9.83609,-7.34084 2.16146,-3.993244 -3.4702,-3.068341 -5.6875,-3.375 z M 46.8125,99.53125 c -10.35087,3.24573 5.685919,1.25473 0,0 z m 87.78125,2.8125 c -0.78212,5.07226 6.48828,-0.68176 0,0 z m 417.5,0.125 c -0.66745,0.93601 2.28297,0.41164 0,0 z m -514.03125,0.0625 c -2.57752,1.91868 3.647689,0.59773 0,0 z m 515.3125,0.1875 c -0.36771,0.71711 1.39698,-0.18376 0,0 z M 34.0625,103.75 c -2.773187,1.77789 3.646832,0.27344 0,0 z M 918.5,103.8125 c -5.95888,1.80787 -0.20246,10.79438 -1.86033,15.6876 -1.72176,4.30909 -1.15837,6.51941 2.74437,4.17741 3.05312,3.90156 -5.52515,-10.34035 2.59961,-7.22625 3.77004,1.65781 -5.08584,-7.29391 -2.35454,-11.17042 L 918.5,103.8125 z M 354.78125,109.5 c -8.26928,1.72746 -6.16764,8.95222 -10.74858,10.28156 3.93939,1.59693 9.24562,0.17654 12.52983,0.56219 -6.37982,5.40504 4.09772,-2.97992 2.81013,2.03341 4.46645,1.60776 2.31562,-2.59212 0.46385,-3.52983 4.74156,-1.23401 -3.87463,-0.6865 0.42415,-3.01079 -4.19064,0.29215 -6.2671,-1.35501 -7.69813,-1.89904 -4.06361,3.3034 2.74104,-4.9564 2.21875,-4.4375 z m -206.75,1.90625 c 3.28223,3.18321 8.06919,5.44202 12.78125,6.8125 -0.87283,-3.94328 -8.57946,-6.43165 -12.78125,-6.8125 z M 340.375,122.125 c -7.22643,3.5268 4.36448,5.25187 0.90625,2.375 -6.72252,3.32632 2.44717,-1.74956 -0.90625,-2.375 z m 318.1875,0.0937 c 7.11078,-1.72966 7.01803,7.71061 0.625,4.84375 -0.31721,3.66235 -1.41747,0.9303 -3.15368,3.04598 3.75038,2.5168 6.99213,5.39468 7.21618,8.26652 1.15423,-6.09694 8.46235,4.39205 2.375,1.625 -6.27772,-0.60594 1.91373,4.05706 -1.3125,4.1875 7.82065,5.37146 -4.32947,12.58189 -9.3125,6.0625 -6.68949,-0.0626 -1.90992,-7.04079 0.12272,-8.87014 1.18866,-0.50773 -7.90507,-5.47417 -6.98812,-9.19243 -3.18449,-1.34657 -0.86549,-6.69623 4.53393,-7.54388 1.52552,-1.34216 4.00733,-1.55518 5.89397,-2.4248 z m 257.65625,4.65625 c -0.40596,4.81499 -2.09899,6.42675 -5.95285,8.26047 -1.20042,5.06194 6.46401,2.50206 1.4216,0.36453 4.36745,-0.46761 8.65867,2.02173 12.3293,-1.32068 7.82146,-4.82837 -5.19169,-1.56129 -7.79805,-7.30432 z m -376.875,6.9375 c -2.00273,1.14671 -3.44029,3.70237 -0.53457,4.54629 0.77005,-1.32654 1.21059,-3.06944 0.53457,-4.54629 z m 374.625,4.46875 c -0.52541,1.98832 -4.59429,2.72861 -3.9375,7.96875 -2.82176,4.68813 -7.76852,5.88418 -8.46875,3.84375 -0.83328,8.98076 -10.10089,2.05686 -14.35386,7.81625 -5.49983,3.91485 6.08028,-0.6715 9.51011,-0.12875 0.22552,0.60439 0.98691,5.95738 3.96875,1.28125 0.47,-3.11914 6.81931,-0.0403 8.48264,-3.08502 2.42201,-1.83489 1.12625,3.1628 3.97516,-1.48999 -1.97753,-5.58586 5.70227,-9.67671 1.88595,-15.51874 l -0.38782,-0.50778 -0.67468,-0.17972 z m -374.8125,0.6875 c -7.57535,0.47186 1.35798,11.34866 1.375,2.09375 l -0.46826,-1.15562 -0.90674,-0.93813 z m 11.40625,8.5 c -6.52773,1.01047 8.19144,7.58544 6.0625,0.3125 -1.47117,-0.75877 -4.31628,1.31164 -6.0625,-0.3125 z m 29.46875,7.25 c 0.22436,3.09129 12.39649,1.34832 3.33719,0.62058 -1.39977,0.3853 -2.19828,-0.4411 -3.33719,-0.62058 z m 313.5625,4.125 c -5.55023,-0.0524 -5.55595,7.13924 -0.78125,2.3125 1.77967,1.77779 4.28177,-2.7839 0.78125,-2.3125 z m -9.4375,1.375 c -6.72941,2.71243 1.45077,1.57886 -1.10268,6.03981 0.0617,2.60709 3.25508,1.43187 4.50127,-3.41257 -1.01365,-2.14957 -0.78331,-1.50456 -3.39859,-2.62724 z m -26,24.46875 c -8.08891,2.0321 -1.19191,14.96318 -0.15625,3.34375 0.13558,-0.8039 1.82495,-3.18762 0.15625,-3.34375 z m -578.53125,5.625 c -7.09073,-0.32245 -9.97938,6.52696 -2.74371,1.52829 4.8994,-0.7229 1.63488,1.54596 7.33659,1.87393 4.88621,0.47125 9.08736,4.50845 9.1144,5.78044 6.50087,-0.0648 9.4668,-0.67999 3.91772,-3.46391 -6.12517,-1.14411 -11.09245,-5.84806 -17.625,-5.71875 z m -217,4.21875 c -1.784373,0.94949 2.587208,1.67839 0.308443,0.0282 L 62.625,194.53125 z m 4.34375,1.625 c -0.42317,2.26548 3.478366,0.71656 0,0 z m 2.125,2.3125 c -3.107252,6.89719 7.231054,1.71091 0,0 z m 758.21875,0.6875 c -8.24746,-1.16021 -4.42024,9.75384 -0.50673,2.24048 0.36147,-0.82902 2.11873,-1.34312 0.50673,-2.24048 z m -522.375,0.21875 c -1.99568,0.20697 5.70449,6.04988 -2.21875,3.65625 -4.51235,0.7025 7.24231,2.55394 7.59375,1.5 2.05002,-1.98425 12.67344,0.46619 4.125,-3.4375 -2.44932,-2.73552 -6.41911,-0.51121 -9.5,-1.71875 z m 17.03125,3.96875 c -1.90044,3.99444 7.69713,-0.31975 1.21875,0.0625 l -1.21875,-0.0625 z m 534.59375,0 c -2.23968,3.06193 -1.89263,6.73901 -3.13517,8.02451 -0.0388,4.50731 5.91219,2.4696 2.61613,5.34925 4.64803,0.26962 5.05815,0.94772 8.69793,2.22478 0.0329,-4.5354 -5.63085,-0.86317 -6.74139,-5.50479 0.18979,-3.35814 6.22488,-10.2987 -1.4375,-10.09375 z m -565.28125,0.125 c -3.88529,2.16932 9.7058,2.24557 1.3322,0.1579 l -1.3322,-0.1579 z m 564.6875,14.46875 c -2.87369,2.93654 5.85215,4.24595 0,0 z M 867.9375,220.5 c -4.45675,0.20323 5.03064,7.66991 0.56941,0.10189 L 867.9375,220.5 z m -8.25,2.15625 c -2.75852,6.9637 6.36275,0.31319 0,0 z m -7.5,1.53125 c -3.49147,2.70936 0.0111,6.73363 0,0 z M 862.875,225 c -4.09327,3.21987 0.66684,8.27998 0.375,0.96875 l 0.12373,-0.66232 L 862.875,225 z m -524,0.3125 c -4.50495,-0.31944 -0.3543,5.50443 0,0 z M 849.71875,228 c -5.87213,3.94656 -3.59498,6.71844 0,0 z m 19.65625,0.40625 c 0.36305,2.80377 -3.67699,4.61313 -5.10631,3.91621 -3.97015,-0.79007 -6.90166,6.57203 -2.51496,2.05406 3.86955,-1.75847 3.90768,5.54059 6.80607,5.39307 1.19936,-0.28727 0.64515,-5.63871 3.28474,-3.67262 0.26583,-3.15799 -0.43003,-5.31567 -2.46954,-7.69072 z m -128.75,0.28125 c -3.09101,3.26765 0.49643,15.96657 4.90625,7.375 -1.12562,-2.67104 -2.37721,-5.76629 -4.90625,-7.375 z m 103.65625,7.875 c -2.93933,4.35803 -3.11073,5.14005 -7.125,6.84375 -3.10108,3.60657 -8.80372,6.66959 -9.85495,8.81968 -5.70857,-4.1573 -4.86889,3.8429 -3.89505,6.52407 2.44429,3.29209 2.39146,7.64372 6.875,5.96875 1.21082,3.01993 7.20857,-1.87365 8.3125,3.59375 5.86736,-2.47154 4.13122,-8.01465 7.97144,-10.95369 -1.28728,-5.38959 7.23835,-2.40314 0.96282,-6.54109 -1.59748,-3.83927 -1.34594,-5.44807 1.58819,-7.42842 -1.47621,-1.30255 5.04367,-2.98291 -1.2445,-3.2321 -1.43826,-0.84213 -0.47666,-2.94558 -3.59045,-3.5947 z M 784,240.25 c 0.7866,6.08566 9.44541,9.04681 11.3125,15.5625 4.147,6.31351 8.63119,13.3071 15,17.21875 0.45774,-1.40838 5.48258,0.90334 3.08225,-5.25492 0.98718,-5.55215 -4.25891,-3.64699 -4.78663,-8.44436 -4.24723,-0.73345 0.81608,-5.59326 -5.22872,-5.66104 -3.47222,-4.00472 -6.22574,-4.40361 -10.66065,-8.42093 -1.62073,-4.92882 -4.95449,-3.04393 -8.71875,-5 z m -246.625,5.46875 c -3.46811,2.14499 2.35325,2.08462 0,0 z m 338.75,5.15625 c -3.2717,3.0092 3.25514,12.44727 0.57007,4.2843 3.20363,0.63474 1.22633,-4.60185 -0.72635,-1.87784 0.22874,-0.76657 1.46841,-1.96965 0.15628,-2.40646 z m -8.1875,0.5625 c -2.95559,5.90073 -10.56703,-0.41117 -13.86213,2.7922 -0.57484,4.13842 -6.38731,10.9782 -1.60662,12.8953 -1.68179,9.05076 4.36501,3.60074 2.06756,-2.02036 3.65388,-3.36953 2.06261,9.00748 7.0652,3.55207 -3.81098,-4.96382 -4.47296,-8.26005 1.62062,-9.93415 -3.37133,-1.33255 -8.71115,4.69941 -9.46079,-1.87814 2.37705,-5.82931 14.56141,3.36035 14.17616,-5.40692 z m -498.21875,5.1875 c -5.72,7.95401 11.27217,1.61168 2.51715,0.24502 -0.84755,0.0231 -1.67766,-0.16196 -2.51715,-0.24502 z m 519.15625,0.96875 c -10.6304,4.13337 10.68398,5.37075 1.87185,6.36146 -5.39118,-1.4863 2.19822,7.82125 2.2549,1.27341 2.24489,5.41721 12.34509,3.12841 14.62325,10.39638 -1.04529,3.75895 6.71395,8.95302 12.75,6.0625 -5.54262,-2.37927 1.38703,-2.77595 3.5625,-3.46875 5.28413,2.50183 10.67322,9.41402 16.8125,7.90625 -3.15075,-3.47446 -6.87401,-4.39929 -10.2571,-10.19732 5.4056,-1.99259 -5.54599,-4.5473 -6.6179,-8.36518 -7.24545,-0.47821 -16.35233,-9.56782 -22.34933,-4.75301 -4.39956,5.68052 -7.81878,1.55832 -8.11942,-3.87199 -1.63121,-0.0385 -2.90416,-1.28759 -4.53125,-1.34375 z m -75.15625,3.1875 c -4.46343,1.27162 5.98416,7.15201 0.15625,0.28125 l -0.15625,-0.28125 z m 63.8125,3.71875 c -0.92742,1.94672 12.09327,3.01602 4.40625,0.125 -1.59873,0.35143 -2.72303,0.20138 -4.40625,-0.125 z m -4.46875,0.78125 c -5.18853,0.28571 3.89337,3.36219 0,0 z m 70.75,3.375 c 1.16198,5.72684 -12.08284,1.45745 -7.25,5.1875 3.72295,1.22684 10.84674,-2.25838 8.20936,-5.03275 l -0.47194,0.10403 -0.48742,-0.25878 z m -129.75,4.65625 c -4.72826,4.63602 6.99567,4.22327 11.625,5.5 5.03532,2.45729 18.68812,1.99792 7.28125,-1 -2.71231,-6.23917 -9.16522,1.31644 -12.50764,-3.56616 -2.61289,-0.51232 -3.90752,-0.55357 -6.39861,-0.93384 z m 92.75,4.1875 c -6.86605,3.53157 2.73885,3.72696 0,0 z m -45.03125,1.65625 c -1.35109,2.80823 -13.3162,0.70618 -4.625,2.625 0.97844,-0.28387 6.69261,-0.91275 4.625,-2.625 z M 848,279.3125 c 2.26827,2.46112 -7.25234,1.32383 -1.25,2.625 2.73219,-0.71544 6.07831,-1.18882 1.94409,-2.25996 L 848,279.3125 z m -8.28125,0.21875 c -4.76108,1.18619 4.48579,1.87188 0,0 z m 34,0.71875 c -5.34211,-1.88421 -14.26551,9.03709 -5.222,2.76141 0.72578,-0.82587 6.93186,-1.53842 5.222,-2.76141 z M 853.25,283.0625 c -6.86817,-0.0562 6.46116,4.41724 0.78125,0.4375 L 853.25,283.0625 z m 64.28125,4.0625 c -3.24232,5.50873 -1.08925,11.35869 -3.52194,17.39097 -4.41163,4.87656 -12.00604,-3.60186 -16.17021,-6.37826 0.53256,-2.211 6.04115,-8.52377 1.97489,-6.39672 -2.22751,0.11611 -13.7179,-5.17051 -9.87697,-2.0802 -2.56301,1.70152 -7.15342,2.28671 -9.12559,7.19405 3.45908,2.92019 -5.6819,3.80589 -5.10448,0.0554 -2.58709,-2.44723 -6.51375,0.41346 -7.33308,3.65061 -3.72612,-0.0351 0.65621,3.88524 -4.30668,2.63799 2.83416,5.18862 -5.43101,-3.15528 -3.72344,4.58236 -5.15664,7.64223 -14.93921,5.02854 -21.71875,10.90625 -1.56966,3.0707 -3.31689,-1.3078 -2.4375,4.40625 -3.15223,2.58336 4.44383,11.67829 -1.25379,6.36607 3.12119,4.92844 -3.71694,-1.98124 1.59754,4.22768 2.46965,6.30936 7.14047,15.21804 3.59375,20.40625 7.08883,6.05945 13.23124,-3.52826 20.84375,-1.0625 8.03919,-2.9835 18.30489,-9.02396 27.4581,-5.60882 6.07522,-0.0765 7.12496,4.10751 10.25802,8.63872 4.28443,-5.54363 9.13592,-8.52786 4.78388,-0.1549 -3.07777,3.32534 4.76851,-5.48567 3,1.1875 0.0122,0.80461 5.64159,0.79507 4.30238,5.75951 4.78502,5.17527 11.99463,2.46138 15.35665,2.20537 2.67617,4.93836 8.72544,-1.85926 13.12222,-2.62113 -0.17331,-7.69661 7.82374,-11.95141 8.49626,-19.13416 1.61466,-5.76467 1.39755,-13.1838 -2.83585,-17.43622 -3.23847,-3.06514 -4.41927,-5.77205 -6.99337,-6.43123 -0.5705,-8.01321 -11.05151,-6.47336 -10.85454,-15.21714 -0.5575,-6.98157 -7.91686,-6.72329 -7.1693,-13.58052 -1.69997,-0.60035 -0.48738,-2.84504 -2.36195,-3.51323 z m -264.96875,3.96875 c -1.93984,3.56137 -3.41349,5.13565 -4.94853,7.24366 -1.29291,3.36449 -5.67611,2.64903 -8.45772,4.53759 -1.30078,5.96652 1.24157,11.28104 -3.29451,16.82975 1.10031,4.59115 2.78715,11.84819 9.17633,8.19276 5.69026,-5.83697 5.73,-16.8778 9.30568,-24.36626 -2.5714,-5.7257 3.99344,-0.25015 1.11383,-6.07701 -0.40965,-2.54431 -0.44085,-5.03028 -2.89508,-6.36049 z m 351.5,63.25 c 2.2935,5.47581 4.2232,3.53767 6.2299,9.68262 -1.4539,4.33785 -4.3586,4.41415 1.1496,6.95324 -1.7614,8.7154 5.549,-4.41449 8.4375,-4.55796 2.7799,-4.71433 -7.5391,-0.28393 -7.9107,-4.8904 -1.5228,1.7398 -2.6008,-2.36922 -2.8159,-3.42305 -0.7832,-2.27006 -3.902,-2.07211 -5.0904,-3.76445 z m -0.6875,17.6875 c -2.3692,5.02472 -7.1062,8.33303 -12.71354,10.48327 -2.47396,3.29924 -6.57921,4.73608 -1.19271,5.42298 5.80125,3.78403 9.73115,-3.33814 10.14265,-5.32952 0.492,-2.08483 6.1336,-0.92145 4.6074,-3.54548 5.4727,-4.30335 5.6889,-3.5851 -0.8438,-7.03125 z m -78.90625,0.25 c 0.88709,4.10039 3.14094,10.66301 8.96875,5.625 4.42897,-9.87052 -4.29255,-1.75987 -8.96875,-5.625 z m -621.25,3.1875 c -4.64907,4.65459 1.18771,6.31512 0,0 z m 1.90625,29.25 c -4.94155,-0.92284 2.24856,4.99526 0,0 z m 10.15625,0.875 c -6.96612,2.94415 2.90227,1.73049 -1.96972,3.74216 8.31409,2.81676 -7.50752,1.78041 1.21972,2.53909 3.72689,0.62322 18.64124,1.2576 7.75,-1.1875 -5.95071,-2.54968 -2.06623,-4.04162 -7,-5.09375 z m 34,30.40625 c -8.69541,3.03221 -18.09558,3.87973 -25.71875,9.53125 -7.77383,-0.12215 2.41858,7.38111 -5.387,8.15765 -2.67966,3.05819 9.88451,9.81497 -0.99318,9.84713 -9.69426,1.52502 -19.83312,3.21942 -29.47578,1.56084 -6.71253,-1.03527 -13.50002,3.64564 -21.04777,-0.60683 -7.51352,-1.58339 -14.50666,0.54691 -23.16165,-0.17085 -8.11769,1.07728 -19.33099,-1.8976 -25.32776,-0.32559 4.50774,1.23212 16.28484,1.45508 5.10752,1.805 -10.78748,-1.14699 7.05329,3.08636 3.52,3.37327 5.17785,1.77657 -9.46151,0.54038 -11.98402,0.46333 -4.54823,-0.39727 -18.33584,3.60787 -16.36736,-2.25713 -4.33996,0.64914 -7.10945,2.29195 -10.40866,-0.97739 -8.58671,2.96096 -19.68157,1.2362 -29.68307,2.42706 -9.58278,-0.45834 -19.18511,0.79331 -28.76002,-0.42149 -12.27989,1.18783 -24.58413,2.94184 -36.813955,4.04859 -10.232273,0.59341 -0.486383,1.05224 4.001455,2.13891 -3.763445,4.22809 -16.899381,1.14457 -24.273146,0.83187 -4.807517,-1.26667 -15.076588,1.64325 -4.923848,3.50539 8.172553,-1.2967 4.41276,0.49601 3.009493,1.45961 8.23271,1.37237 16.83592,1.24802 24.964613,3.65417 6.359618,2.00224 -8.372037,4.009 -11.529556,3.03795 -3.870933,-0.004 -18.106231,-1.203 -16.185056,0.38601 7.994586,-0.20813 2.143208,2.88025 10.562502,3.18988 3.412819,-0.91306 -6.314077,5.53207 1.406248,5.31012 12.501857,0.80247 25.5814,1.41894 37.77786,2.04006 -10.67875,1.77582 -21.941106,-1.46774 -32.572368,1.1133 -13.423916,-0.70659 -27.000997,0.79385 -40.411613,-1.16968 -14.867717,-1.57614 -29.847438,-1.38511 -44.762629,-2.01493 1.09100079,7.02537 -4.22215,20.45783 8.0068602,16.34006 C 346.65038,512.12263 685.4502,512.12498 1024.25,512.125 c -0.9078,-7.09344 3.8176,-19.5282 -7.7135,-16.95049 -8.162,-0.24213 -22.41668,-1.92138 -26.65874,-2.20779 1.59587,-1.37128 -13.13382,-2.76295 -17.32308,-4.71907 -2.77073,-0.59634 -8.73315,-4.64357 -8.96094,-3.99765 6.13183,-2.06363 3.79546,-4.64112 12.11177,-3.86439 3.89079,-1.44541 16.33422,0.19895 6.13895,-2.0608 -5.03274,-1.77884 -7.79751,-3.30197 -6.82586,-7.683 0.8311,-2.57619 8.09509,-1.28672 7.85666,-4.16865 7.23259,-0.18886 12.26245,-2.99923 15.31255,-5.88149 -5.90512,-2.71583 -14.72416,-4.1586 -21.72992,-3.66188 -8.02449,-2.85098 -17.62202,-2.77201 -25.1957,-5.80019 -5.24117,2.49027 -13.58345,-1.34765 -20.79344,-1.6296 -6.00544,-3.35369 -14.23667,-3.06659 -22.8765,-4.06021 -5.37159,-0.29444 -11.23878,0.0952 -12.64419,-4.27811 -0.51568,6.24284 -12.24309,1.23752 -16.80793,5.48818 -7.81878,-2.00855 -15.08293,-0.95772 -23.75778,-0.33638 -9.5643,2.05361 -17.40754,-4.55306 -26.63235,-2.37598 -5.65587,4.56656 -14.52266,-0.8455 -21.44313,-0.004 -7.93575,-0.41744 -14.31094,3.65592 -22.42258,1.43318 -7.02576,0.4901 -17.26247,0.0398 -21.41554,0.008 -7.25703,2.61695 -17.21119,0.55134 -24.875,4.53125 -7.67951,5.27146 -18.81021,3.1812 -25.13405,11.09164 -9.41188,4.11703 -6.96761,-3.32916 -4.36595,-4.27914 -9.19126,1.00464 10.16777,-5.78563 0.0625,-7.65625 -11.4123,-0.51074 -22.84011,-0.81523 -34.16585,-2.54859 0.76346,-3.66096 -14.45387,-3.84948 -19.08019,-0.84111 1.92675,3.08485 -7.07449,-0.25047 -4.43112,2.41161 -6.91633,-0.0788 -13.82145,1.17598 -21.62372,3.32322 -4.92463,1.79963 -5.42374,4.37648 -9.87439,2.79827 0.68566,-1.02811 -7.84957,-0.60062 -10.0898,-3.22326 -6.95061,5.04869 -17.05038,3.85221 -25.55639,5.49845 -10.09455,1.0768 -20.14642,-2.34677 -30.30941,-0.5727 -8.60349,3.19854 -15.98921,-2.31202 -24.7869,1.06607 -9.72951,1.5158 -18.32608,3.40697 -27.83615,1.93302 -3.17318,0.079 -6.6641,0.79989 -4.722,-1.46724 -4.19017,-0.819 -6.98521,5.93447 -10.58657,0.74726 -3.89615,2.75336 -9.3425,-0.71519 -5.9375,3.53125 -3.22922,1.395 -15.65657,2.7692 -13.53125,4.84375 6.09275,-1.07142 6.68566,0.70172 0.27582,1.63999 -9.80742,6.38924 -22.55791,2.65922 -33.68797,5.76611 -7.26939,2.06956 -18.87242,0.80339 -23.0566,7.2814 7.0981,1.94213 17.84044,-2.85178 22.62691,2.82655 -8.72973,3.02388 -18.79096,1.58578 -28.04685,2.35735 -8.06867,0.67319 -15.18549,3.24736 -23.312,2.55474 -10.78445,0.38169 -21.81973,-0.22155 -32.17381,3.32697 -8.51268,-1.87056 -18.52303,-3.4727 -28.09425,-4.37811 -8.85733,-0.94383 -17.86236,-1.55557 -26.48033,-3.62622 -5.39892,0.58235 -11.92344,-1.48003 -2.518,-0.76559 11.51349,-1.95102 -8.78558,-2.47358 -11.97042,-2.20194 -7.01509,0.75528 -6.39491,-5.63272 -0.0312,-1.25 3.598,1.72015 19.16908,-1.05521 7.53154,-1.29136 -6.57815,0.46537 -6.81952,-3.39402 -0.25787,-1.78373 4.29225,0.0456 17.99983,2.90675 17.03883,-0.54991 -4.49479,2.05118 -22.56301,-4.90209 -9.34426,-3.67081 10.03176,2.62514 20.58446,1.17282 30.60969,-0.89633 9.28395,0.25217 21.34695,-10.00932 9.49635,-17.19849 -1.9355,-4.20348 -13.90664,-4.58173 -4.26178,-9.01562 6.70097,0.61422 9.2546,-8.4771 17.20834,-7.41913 0.876,-0.18795 3.71859,-0.76487 2.10416,-2.26837 z m -37.59375,15.84375 c -7.96888,-1.49101 0.46737,8.91005 -8.95465,7.159 -9.6449,2.05518 3.19353,1.67027 5.26715,2.12225 -9.61057,4.65938 19.60965,1.45803 7,-6.15625 -0.94297,-1.17357 -1.73666,-2.69991 -3.3125,-3.125 z m -85.71875,8.5 c -11.12718,1.25541 8.07677,2.60723 12.0367,2.0543 6.15031,-2.24429 -11.02541,-2.16989 -12.0367,-2.0543 z m -141.125,14.3125 c -5.168678,0.93193 7.680407,0.71038 0,0 z m 289.625,3.5 c -6.80533,1.44899 -10.35016,6.25253 -17.96102,6.59364 4.56148,3.5656 20.06287,-0.12286 28.70993,-0.25942 9.37511,-5.63465 -6.76222,-7.29727 -10.74891,-6.33422 z M 50.1875,480.3125 c -12.972313,2.78003 21.338175,4.84364 5.81291,0.7458 -1.912767,-0.4004 -3.867361,-0.58908 -5.81291,-0.7458 z"
       id="Montenegro"
       inkscape:connector-curvature="0" /></g><g
     inkscape:groupmode="layer"
     id="layer3"
     inkscape:label="voyage"><path
       id="path3202"
       style="fill:none;stroke:#b00000;stroke-width:3;stroke-linecap:butt;stroke-linejoin:miter;stroke-miterlimit:4;stroke-opacity:1;stroke-dasharray:none;display:inline"
       d="m 1024,353 c 0,0 -6.75,4 -13.25,8.25 4.5,-20 -53.75,-11.25 -69,-6.5 12.84935,16.91884 7.70333,25.74774 -12.75,25.25 -27.25,-6 -50.75,-1.25 -85,-24 -31.5,-4.75 -10.75,-56.25 -52,-67 -41.25,-10.75 -90.40404,14.45367 -113,24 -33.88099,14.31403 -77.75,61.75 -112.75,41.25 -69,-5 -135.75,-26.5 -163.25,-61.25 33.75,-5.75 38,-33 51.5,-70.5 13.5,-37.5 -12.25,-44.5 -0.25,-70.25 12,-25.75 48.15625,-40.125 48.78125,-40 0.625,0.125 -37.47395,14.76813 -39.28125,61.75 -2.07474,53.93399 -41.70001,10.82148 -35.75,61 3.67146,30.96272 0.65262,49.90046 -26,58 6.53567,34.47869 -11,35 -27,37 3,24.5 -15,33.5 -25,25 9,9 2,35.25 -6,47.5 -8,12.25 -19.25,1.875 -27.25,2.625 -8,0.75 -5.875,11.75 -18.375,-0.375 C 289.49641,396.13777 295.75,364 306,356 c -3.5,-29.25 -5,-42 -11,-62 -26,-19 -13.25,-30 -25,-30 -75.50497,0 -271,90 -271,90"
       sodipodi:nodetypes="cccccssccsscsscccsssccsc"
       inkscape:connector-curvature="0" /><path
       sodipodi:type="star"
       style="fill:#b00000;fill-opacity:1;stroke:none"
       id="path2394"
       sodipodi:sides="3"
       sodipodi:cx="485.0293"
       sodipodi:cy="200.09537"
       sodipodi:r1="5.7342386"
       sodipodi:r2="2.8671193"
       sodipodi:arg1="1.7033479"
       sodipodi:arg2="2.7505454"
       inkscape:flatsided="true"
       inkscape:rounded="0"
       inkscape:randomized="0"
       d="m 484.27144,205.7793 -3.78565,-9.18223 9.84487,1.31265 z"
       transform="matrix(1.015465,0.02437733,-0.02613654,1.0887463,-21.644502,-70.779689)" /><path
       transform="matrix(0.4298604,0.9203171,-0.986732,0.4608813,440.81407,-379.20379)"
       d="m 484.27144,205.7793 -3.78565,-9.18223 9.84487,1.31265 z"
       inkscape:randomized="0"
       inkscape:rounded="0"
       inkscape:flatsided="true"
       sodipodi:arg2="2.7505454"
       sodipodi:arg1="1.7033479"
       sodipodi:r2="2.8671193"
       sodipodi:r1="5.7342386"
       sodipodi:cy="200.09537"
       sodipodi:cx="485.0293"
       sodipodi:sides="3"
       id="path2973"
       style="fill:#b00000;fill-opacity:1;stroke:none"
       sodipodi:type="star" /><path
       transform="matrix(0.9828349,-0.2565135,0.2750248,1.0537614,-103.87763,148.1071)"
       d="m 484.27144,205.7793 -3.78565,-9.18223 9.84487,1.31265 z"
       inkscape:randomized="0"
       inkscape:rounded="0"
       inkscape:flatsided="true"
       sodipodi:arg2="2.7505454"
       sodipodi:arg1="1.7033479"
       sodipodi:r2="2.8671193"
       sodipodi:r1="5.7342386"
       sodipodi:cy="200.09537"
       sodipodi:cx="485.0293"
       sodipodi:sides="3"
       id="path2975"
       style="fill:#b00000;fill-opacity:1;stroke:none"
       sodipodi:type="star" /><path
       sodipodi:type="star"
       style="fill:#b00000;fill-opacity:1;stroke:none"
       id="path2977"
       sodipodi:sides="3"
       sodipodi:cx="485.0293"
       sodipodi:cy="200.09537"
       sodipodi:r1="5.7342386"
       sodipodi:r2="2.8671193"
       sodipodi:arg1="1.7033479"
       sodipodi:arg2="2.7505454"
       inkscape:flatsided="true"
       inkscape:rounded="0"
       inkscape:randomized="0"
       d="m 484.27144,205.7793 -3.78565,-9.18223 9.84487,1.31265 z"
       transform="matrix(0.32832,0.9612333,-1.0306009,0.3520133,496.0818,-298.75196)" /><path
       sodipodi:type="star"
       style="fill:#b00000;fill-opacity:1;stroke:none"
       id="path2979"
       sodipodi:sides="3"
       sodipodi:cx="485.0293"
       sodipodi:cy="200.09537"
       sodipodi:r1="5.7342386"
       sodipodi:r2="2.8671193"
       sodipodi:arg1="1.7033479"
       sodipodi:arg2="2.7505454"
       inkscape:flatsided="true"
       inkscape:rounded="0"
       inkscape:randomized="0"
       d="m 484.27144,205.7793 -3.78565,-9.18223 9.84487,1.31265 z"
       transform="matrix(1.0092783,0.1145459,-0.1228121,1.0821132,-112.83302,110)" /><path
       transform="matrix(0.5440205,0.8992133,-0.923773,0.5065103,30.961676,-229.90137)"
       d="m 484.27144,205.7793 -3.78565,-9.18223 9.84487,1.31265 z"
       inkscape:randomized="0"
       inkscape:rounded="0"
       inkscape:flatsided="true"
       sodipodi:arg2="2.7505454"
       sodipodi:arg1="1.7033479"
       sodipodi:r2="2.8671193"
       sodipodi:r1="5.7342386"
       sodipodi:cy="200.09537"
       sodipodi:cx="485.0293"
       sodipodi:sides="3"
       id="path2981"
       style="fill:#b00000;fill-opacity:1;stroke:none"
       sodipodi:type="star" /><path
       sodipodi:type="star"
       style="fill:#b00000;fill-opacity:1;stroke:none"
       id="path2983"
       sodipodi:sides="3"
       sodipodi:cx="485.0293"
       sodipodi:cy="200.09537"
       sodipodi:r1="5.7342386"
       sodipodi:r2="2.8671193"
       sodipodi:arg1="1.7033479"
       sodipodi:arg2="2.7505454"
       inkscape:flatsided="true"
       inkscape:rounded="0"
       inkscape:randomized="0"
       d="m 484.27144,205.7793 -3.78565,-9.18223 9.84487,1.31265 z"
       transform="matrix(0.5440205,0.8992133,-0.923773,0.5065103,626.96168,-236.28029)" /><path
       transform="matrix(-0.2121795,1.0293312,-1.0218491,-0.256386,775.38078,-113.6054)"
       d="m 484.27144,205.7793 -3.78565,-9.18223 9.84487,1.31265 z"
       inkscape:randomized="0"
       inkscape:rounded="0"
       inkscape:flatsided="true"
       sodipodi:arg2="2.7505454"
       sodipodi:arg1="1.7033479"
       sodipodi:r2="2.8671193"
       sodipodi:r1="5.7342386"
       sodipodi:cy="200.09537"
       sodipodi:cx="485.0293"
       sodipodi:sides="3"
       id="path2985"
       style="fill:#b00000;fill-opacity:1;stroke:none"
       sodipodi:type="star" /></g><g
     inkscape:groupmode="layer"
     id="layer5"
     inkscape:label="ville"
     style="display:inline"><g
       inkscape:label="Layer 1"
       id="g2405"
       transform="translate(495.5736,104.09901)"><g
         transform="matrix(0.6983374,0,0,0.6983374,-5.5574505,-200.87456)"
         id="point_sous-prefecture"><path
           transform="translate(-570.5861,-80.8973)"
           d="m 594.5,380 c 0,2.48528 -2.01472,4.5 -4.5,4.5 -2.48528,0 -4.5,-2.01472 -4.5,-4.5 0,-2.48528 2.01472,-4.5 4.5,-4.5 2.48528,0 4.5,2.01472 4.5,4.5 z"
           sodipodi:type="arc"
           style="fill:#ffffff;fill-opacity:1;fill-rule:evenodd;stroke:#000000;stroke-width:1.5;stroke-linecap:butt;stroke-linejoin:miter;stroke-miterlimit:4;stroke-opacity:1;stroke-dasharray:none;stroke-dashoffset:0;display:inline"
           id="point_sous-prefecture_1"
           sodipodi:cx="590"
           sodipodi:cy="380"
           sodipodi:rx="4.5"
           sodipodi:ry="4.5" /><path
           transform="translate(-570.5861,-80.8973)"
           d="m 592,380 c 0,1.10457 -0.89543,2 -2,2 -1.10457,0 -2,-0.89543 -2,-2 0,-1.10457 0.89543,-2 2,-2 1.10457,0 2,0.89543 2,2 z"
           sodipodi:type="arc"
           style="fill:#000000;fill-opacity:1;stroke:none"
           id="point_sous-prefecture_2"
           sodipodi:cx="590"
           sodipodi:cy="380"
           sodipodi:rx="2"
           sodipodi:ry="2" /></g></g><use
       x="0"
       y="0"
       xlink:href="#g2405"
       id="use2410"
       transform="translate(-104,180)"
       width="1024"
       height="432" /><use
       height="432"
       width="1024"
       transform="translate(-130,216)"
       id="use2412"
       xlink:href="#g2405"
       y="0"
       x="0" /><use
       x="0"
       y="0"
       xlink:href="#g2405"
       id="use2414"
       transform="translate(-156,242)"
       width="1024"
       height="432" /><use
       height="432"
       width="1024"
       transform="translate(-196,244)"
       id="use2416"
       xlink:href="#g2405"
       y="0"
       x="0" /><use
       x="0"
       y="0"
       xlink:href="#g2405"
       id="use2418"
       transform="translate(-206.75,181.25)"
       width="1024"
       height="432" /><use
       height="432"
       width="1024"
       transform="translate(437.25,241.25)"
       id="use2420"
       xlink:href="#g2405"
       y="0"
       x="0" /><use
       x="0"
       y="0"
       xlink:href="#g2405"
       id="use2422"
       transform="translate(425.5,267.75)"
       width="1024"
       height="432" /><use
       height="432"
       width="1024"
       transform="translate(341.75,243.75)"
       id="use2424"
       xlink:href="#g2405"
       y="0"
       x="0" /><use
       x="0"
       y="0"
       xlink:href="#g2405"
       id="use2426"
       transform="translate(64.25,241.25)"
       width="1024"
       height="432" /></g><g
     inkscape:groupmode="layer"
     id="layer4"
     inkscape:label="texte"
     style="display:inline"><text
       xml:space="preserve"
       style="font-size:64px;font-style:normal;font-variant:normal;font-weight:normal;font-stretch:normal;text-align:center;line-height:100%;writing-mode:lr-tb;text-anchor:middle;fill:#000000;fill-opacity:1;stroke:none;font-family:Arial Black"
       x="447"
       y="113"
       id="text3148"
       sodipodi:linespacing="100%"><tspan
         sodipodi:role="line"
         x="447"
         y="113"
         style="font-size:16px;font-style:normal;font-variant:normal;font-weight:normal;font-stretch:normal;text-align:center;line-height:100%;writing-mode:lr-tb;text-anchor:middle;font-family:Arial"
         id="tspan3170">Plymouth</tspan></text>
<text
       sodipodi:linespacing="100%"
       id="text3152"
       y="153"
       x="421"
       style="font-size:64px;font-style:normal;font-variant:normal;font-weight:normal;font-stretch:normal;text-align:center;line-height:100%;writing-mode:lr-tb;text-anchor:middle;fill:#000000;fill-opacity:1;stroke:none;font-family:Arial Black"
       xml:space="preserve"><tspan
         style="font-size:16px;font-style:normal;font-variant:normal;font-weight:normal;font-stretch:normal;text-align:center;line-height:100%;writing-mode:lr-tb;text-anchor:middle;font-family:Arial"
         y="153"
         x="421"
         id="tspan3154"
         sodipodi:role="line">Azores</tspan></text>
<text
       xml:space="preserve"
       style="font-size:64px;font-style:normal;font-variant:normal;font-weight:normal;font-stretch:normal;text-align:center;line-height:100%;writing-mode:lr-tb;text-anchor:middle;fill:#000000;fill-opacity:1;stroke:none;font-family:Arial Black"
       x="503"
       y="177"
       id="text3156"
       sodipodi:linespacing="100%"><tspan
         sodipodi:role="line"
         id="tspan3158"
         x="503"
         y="177"
         style="font-size:16px;font-style:normal;font-variant:normal;font-weight:normal;font-stretch:normal;text-align:center;line-height:100%;writing-mode:lr-tb;text-anchor:middle;font-family:Arial">Tenerife</tspan></text>
<text
       sodipodi:linespacing="100%"
       id="text3160"
       y="199"
       x="409"
       style="font-size:64px;font-style:normal;font-variant:normal;font-weight:normal;font-stretch:normal;text-align:center;line-height:100%;writing-mode:lr-tb;text-anchor:middle;fill:#000000;fill-opacity:1;stroke:none;font-family:Arial Black"
       xml:space="preserve"><tspan
         style="font-size:16px;font-style:normal;font-variant:normal;font-weight:normal;font-stretch:normal;text-align:center;line-height:100%;writing-mode:lr-tb;text-anchor:middle;font-family:Arial"
         y="199"
         x="409"
         sodipodi:role="line"
         id="tspan3164">Cape Verde</tspan></text>
<text
       sodipodi:linespacing="100%"
       id="text3166"
       y="283"
       x="385"
       style="font-size:64px;font-style:normal;font-variant:normal;font-weight:normal;font-stretch:normal;text-align:center;line-height:100%;writing-mode:lr-tb;text-anchor:middle;fill:#000000;fill-opacity:1;stroke:none;font-family:Arial Black"
       xml:space="preserve"><tspan
         style="font-size:16px;font-style:normal;font-variant:normal;font-weight:normal;font-stretch:normal;text-align:center;line-height:100%;writing-mode:lr-tb;text-anchor:middle;font-family:Arial"
         y="283"
         x="385"
         id="tspan3168"
         sodipodi:role="line">Bahia</tspan></text>
<text
       xml:space="preserve"
       style="font-size:64px;font-style:normal;font-variant:normal;font-weight:normal;font-stretch:normal;text-align:center;line-height:100%;writing-mode:lr-tb;text-anchor:middle;fill:#000000;fill-opacity:1;stroke:none;font-family:Arial Black"
       x="344.75"
       y="323.5"
       id="text3174"
       sodipodi:linespacing="100%"><tspan
         sodipodi:role="line"
         id="tspan3176"
         x="344.75"
         y="323.5"
         style="font-size:16px;font-style:normal;font-variant:normal;font-weight:normal;font-stretch:normal;text-align:center;line-height:100%;writing-mode:lr-tb;text-anchor:middle;font-family:Arial">Rio de</tspan><tspan
         sodipodi:role="line"
         x="344.75"
         y="339.5"
         style="font-size:16px;font-style:normal;font-variant:normal;font-weight:normal;font-stretch:normal;text-align:center;line-height:100%;writing-mode:lr-tb;text-anchor:middle;font-family:Arial"
         id="tspan3178">Janeiro</tspan></text>
<text
       xml:space="preserve"
       style="font-size:64px;font-style:normal;font-variant:normal;font-weight:normal;font-stretch:normal;text-align:center;line-height:100%;writing-mode:lr-tb;text-anchor:middle;fill:#000000;fill-opacity:1;stroke:none;font-family:Arial Black"
       x="399"
       y="373"
       id="text3180"
       sodipodi:linespacing="100%"><tspan
         sodipodi:role="line"
         id="tspan3182"
         x="399"
         y="373"
         style="font-size:16px;font-style:normal;font-variant:normal;font-weight:normal;font-stretch:normal;text-align:center;line-height:100%;writing-mode:lr-tb;text-anchor:middle;font-family:Arial">Montevideo</tspan></text>
<text
       sodipodi:linespacing="100%"
       id="text3184"
       y="405"
       x="383"
       style="font-size:64px;font-style:normal;font-variant:normal;font-weight:normal;font-stretch:normal;text-align:center;line-height:100%;writing-mode:lr-tb;text-anchor:middle;fill:#000000;fill-opacity:1;stroke:none;font-family:Arial Black"
       xml:space="preserve"><tspan
         style="font-size:16px;font-style:normal;font-variant:normal;font-weight:normal;font-stretch:normal;text-align:center;line-height:100%;writing-mode:lr-tb;text-anchor:middle;font-family:Arial"
         y="405"
         x="383"
         id="tspan3186"
         sodipodi:role="line">Falkland</tspan><tspan
         style="font-size:16px;font-style:normal;font-variant:normal;font-weight:normal;font-stretch:normal;text-align:center;line-height:100%;writing-mode:lr-tb;text-anchor:middle;font-family:Arial"
         y="421"
         x="383"
         sodipodi:role="line"
         id="tspan2413">Islands</tspan></text>
<text
       xml:space="preserve"
       style="font-size:64px;font-style:normal;font-variant:normal;font-weight:normal;font-stretch:normal;text-align:center;line-height:100%;writing-mode:lr-tb;text-anchor:middle;fill:#000000;fill-opacity:1;stroke:none;font-family:Arial Black"
       x="265"
       y="357"
       id="text3188"
       sodipodi:linespacing="100%"><tspan
         sodipodi:role="line"
         id="tspan3190"
         x="265"
         y="357"
         style="font-size:16px;font-style:normal;font-variant:normal;font-weight:normal;font-stretch:normal;text-align:center;line-height:100%;writing-mode:lr-tb;text-anchor:middle;font-family:Arial">Valparaiso</tspan></text>
<text
       sodipodi:linespacing="100%"
       id="text3192"
       y="303"
       x="269"
       style="font-size:64px;font-style:normal;font-variant:normal;font-weight:normal;font-stretch:normal;text-align:center;line-height:100%;writing-mode:lr-tb;text-anchor:middle;fill:#000000;fill-opacity:1;stroke:none;font-family:Arial Black"
       xml:space="preserve"><tspan
         style="font-size:16px;font-style:normal;font-variant:normal;font-weight:normal;font-stretch:normal;text-align:center;line-height:100%;writing-mode:lr-tb;text-anchor:middle;font-family:Arial"
         y="303"
         x="269"
         id="tspan3194"
         sodipodi:role="line">Callao</tspan><tspan
         style="font-size:16px;font-style:normal;font-variant:normal;font-weight:normal;font-stretch:normal;text-align:center;line-height:100%;writing-mode:lr-tb;text-anchor:middle;font-family:Arial"
         y="319"
         x="269"
         sodipodi:role="line"
         id="tspan3196">Lima</tspan></text>
<text
       xml:space="preserve"
       style="font-size:64px;font-style:normal;font-variant:normal;font-weight:normal;font-stretch:normal;text-align:center;line-height:100%;writing-mode:lr-tb;text-anchor:middle;fill:#000000;fill-opacity:1;stroke:none;font-family:Arial Black"
       x="241"
       y="259"
       id="text3198"
       sodipodi:linespacing="100%"><tspan
         sodipodi:role="line"
         id="tspan3200"
         x="241"
         y="259"
         style="font-size:16px;font-style:normal;font-variant:normal;font-weight:normal;font-stretch:normal;text-align:center;line-height:100%;writing-mode:lr-tb;text-anchor:middle;font-family:Arial">Galapagos</tspan></text>
<text
       sodipodi:linespacing="100%"
       id="text3202"
       y="347"
       x="919"
       style="font-size:64px;font-style:normal;font-variant:normal;font-weight:normal;font-stretch:normal;text-align:center;line-height:100%;writing-mode:lr-tb;text-anchor:middle;fill:#000000;fill-opacity:1;stroke:none;font-family:Arial Black"
       xml:space="preserve"><tspan
         style="font-size:16px;font-style:normal;font-variant:normal;font-weight:normal;font-stretch:normal;text-align:center;line-height:100%;writing-mode:lr-tb;text-anchor:middle;font-family:Arial"
         y="347"
         x="919"
         id="tspan3204"
         sodipodi:role="line">Sydney</tspan></text>
<text
       xml:space="preserve"
       style="font-size:64px;font-style:normal;font-variant:normal;font-weight:normal;font-stretch:normal;text-align:center;line-height:100%;writing-mode:lr-tb;text-anchor:middle;fill:#000000;fill-opacity:1;stroke:none;font-family:Arial Black"
       x="931"
       y="397"
       id="text3206"
       sodipodi:linespacing="100%"><tspan
         sodipodi:role="line"
         id="tspan3208"
         x="931"
         y="397"
         style="font-size:16px;font-style:normal;font-variant:normal;font-weight:normal;font-stretch:normal;text-align:center;line-height:100%;writing-mode:lr-tb;text-anchor:middle;font-family:Arial">Hobart</tspan></text>
<text
       xml:space="preserve"
       style="font-size:64px;font-style:normal;font-variant:normal;font-weight:normal;font-stretch:normal;text-align:center;line-height:100%;writing-mode:lr-tb;text-anchor:middle;fill:#000000;fill-opacity:1;stroke:none;font-family:Arial Black"
       x="795"
       y="371"
       id="text3210"
       sodipodi:linespacing="100%"><tspan
         sodipodi:role="line"
         id="tspan3212"
         x="795"
         y="371"
         style="font-size:16px;font-style:normal;font-variant:normal;font-weight:normal;font-stretch:normal;text-align:center;line-height:100%;writing-mode:lr-tb;text-anchor:middle;font-family:Arial">King George's</tspan><tspan
         sodipodi:role="line"
         x="795"
         y="387"
         style="font-size:16px;font-style:normal;font-variant:normal;font-weight:normal;font-stretch:normal;text-align:center;line-height:100%;writing-mode:lr-tb;text-anchor:middle;font-family:Arial"
         id="tspan3214"> Sound</tspan></text>
<text
       xml:space="preserve"
       style="font-size:64px;font-style:normal;font-variant:normal;font-weight:normal;font-stretch:normal;text-align:center;line-height:100%;writing-mode:lr-tb;text-anchor:middle;fill:#000000;fill-opacity:1;stroke:none;font-family:Arial Black"
       x="765"
       y="265"
       id="text3216"
       sodipodi:linespacing="100%"><tspan
         sodipodi:role="line"
         id="tspan3218"
         x="765"
         y="265"
         style="font-size:16px;font-style:normal;font-variant:normal;font-weight:normal;font-stretch:normal;text-align:center;line-height:100%;writing-mode:lr-tb;text-anchor:middle;font-family:Arial">Cocos</tspan><tspan
         sodipodi:role="line"
         x="765"
         y="281"
         style="font-size:16px;font-style:normal;font-variant:normal;font-weight:normal;font-stretch:normal;text-align:center;line-height:100%;writing-mode:lr-tb;text-anchor:middle;font-family:Arial"
         id="tspan2415">(Keeling) Isl.</tspan></text>
<text
       sodipodi:linespacing="100%"
       id="text3220"
       y="329"
       x="707"
       style="font-size:64px;font-style:normal;font-variant:normal;font-weight:normal;font-stretch:normal;text-align:center;line-height:100%;writing-mode:lr-tb;text-anchor:middle;fill:#000000;fill-opacity:1;stroke:none;font-family:Arial Black"
       xml:space="preserve"><tspan
         style="font-size:16px;font-style:normal;font-variant:normal;font-weight:normal;font-stretch:normal;text-align:center;line-height:100%;writing-mode:lr-tb;text-anchor:middle;font-family:Arial"
         y="329"
         x="707"
         id="tspan3222"
         sodipodi:role="line">Mauritius</tspan></text>
<text
       xml:space="preserve"
       style="font-size:64px;font-style:normal;font-variant:normal;font-weight:normal;font-stretch:normal;text-align:center;line-height:100%;writing-mode:lr-tb;text-anchor:middle;fill:#000000;fill-opacity:1;stroke:none;font-family:Arial Black"
       x="531"
       y="371"
       id="text3224"
       sodipodi:linespacing="100%"><tspan
         sodipodi:role="line"
         id="tspan3226"
         x="531"
         y="371"
         style="font-size:16px;font-style:normal;font-variant:normal;font-weight:normal;font-stretch:normal;text-align:center;line-height:100%;writing-mode:lr-tb;text-anchor:middle;font-family:Arial">Cape Town</tspan></text>
</g></svg>